<svg xmlns="http://www.w3.org/2000/svg" width="32.299" height="29.561" viewBox="0 0 32.299 29.561">
  <g id="shopping-cart_4_" data-name="shopping-cart (4)" transform="translate(0 -21.705)">
    <g id="Сгруппировать_30" data-name="Сгруппировать 30" transform="translate(21.547 43.211)">
      <g id="Сгруппировать_29" data-name="Сгруппировать 29">
        <path id="Контур_18" data-name="Контур 18" d="M345.574,362.612a4.027,4.027,0,1,0,4.027,4.027A4.032,4.032,0,0,0,345.574,362.612Zm0,5.638a1.611,1.611,0,1,1,1.611-1.611A1.613,1.613,0,0,1,345.574,368.25Z" transform="translate(-341.547 -362.612)" fill="#286d74"/>
      </g>
    </g>
    <g id="Сгруппировать_32" data-name="Сгруппировать 32" transform="translate(0 21.705)">
      <g id="Сгруппировать_31" data-name="Сгруппировать 31" transform="translate(0 0)">
        <path id="Контур_19" data-name="Контур 19" d="M32.043,27.646a1.207,1.207,0,0,0-.951-.464H7.458l-1.087-4.55A1.209,1.209,0,0,0,5.2,21.7H1.208a1.208,1.208,0,1,0,0,2.416H4.242l3.927,16.43a1.208,1.208,0,0,0,1.175.927H28.152a1.208,1.208,0,0,0,1.173-.917l2.94-11.881A1.21,1.21,0,0,0,32.043,27.646ZM27.206,39.063H10.3L8.035,29.6H29.548Z" transform="translate(0 -21.705)" fill="#286d74"/>
      </g>
    </g>
    <g id="Сгруппировать_34" data-name="Сгруппировать 34" transform="translate(6.927 43.211)">
      <g id="Сгруппировать_33" data-name="Сгруппировать 33">
        <path id="Контур_20" data-name="Контур 20" d="M113.833,362.612a4.027,4.027,0,1,0,4.027,4.027A4.032,4.032,0,0,0,113.833,362.612Zm0,5.638a1.611,1.611,0,1,1,1.611-1.611A1.613,1.613,0,0,1,113.833,368.25Z" transform="translate(-109.806 -362.612)" fill="#286d74"/>
      </g>
    </g>
  </g>
</svg>
