<svg xmlns="http://www.w3.org/2000/svg" width="32.636" height="26.987" viewBox="0 0 32.636 26.987">
  <g id="wallet" transform="translate(0 -44.308)">
    <g id="Сгруппировать_2" data-name="Сгруппировать 2" transform="translate(0 44.308)">
      <g id="Сгруппировать_1" data-name="Сгруппировать 1">
        <path id="Контур_1" data-name="Контур 1" d="M27.929,44.308H4.707A4.712,4.712,0,0,0,0,49.015V66.588A4.712,4.712,0,0,0,4.707,71.3H27.929a4.712,4.712,0,0,0,4.707-4.707V49.015A4.712,4.712,0,0,0,27.929,44.308Zm2.824,16.318h-6.9a2.824,2.824,0,1,1,0-5.649h6.9v5.649Zm0-7.531h-6.9a4.707,4.707,0,1,0,0,9.414h6.9v4.079a2.827,2.827,0,0,1-2.824,2.824H4.707a2.827,2.827,0,0,1-2.824-2.824V49.015a2.827,2.827,0,0,1,2.824-2.824H27.929a2.827,2.827,0,0,1,2.824,2.824v4.079Z" transform="translate(0 -44.308)" fill="#286d74"/>
      </g>
    </g>
    <g id="Сгруппировать_4" data-name="Сгруппировать 4" transform="translate(22.908 56.86)">
      <g id="Сгруппировать_3" data-name="Сгруппировать 3">
        <path id="Контур_2" data-name="Контур 2" d="M361.582,241.231h-1.255a.941.941,0,1,0,0,1.883h1.255a.941.941,0,1,0,0-1.883Z" transform="translate(-359.385 -241.231)" fill="#286d74"/>
      </g>
    </g>
  </g>
</svg>
