<svg id="check" xmlns="http://www.w3.org/2000/svg" width="87.963" height="87.963" viewBox="0 0 87.963 87.963">
  <g id="Сгруппировать_156" data-name="Сгруппировать 156">
    <circle id="Эллипс_12" data-name="Эллипс 12" cx="40.575" cy="40.575" r="40.575" transform="translate(3.407 3.407)" fill="#ffc400"/>
    <path id="Контур_175" data-name="Контур 175" d="M43.981,87.963A43.981,43.981,0,1,1,87.963,43.981,44.032,44.032,0,0,1,43.981,87.963Zm0-81.149A37.168,37.168,0,1,0,81.149,43.981,37.209,37.209,0,0,0,43.981,6.814Z" fill="#ffc400"/>
  </g>
  <path id="Контур_176" data-name="Контур 176" d="M148.044,194.187a3.4,3.4,0,0,1-2.429-1.019l-12.571-12.775a3.406,3.406,0,0,1,4.858-4.776l10.043,10.207,20.778-22.883a3.406,3.406,0,1,1,5.042,4.582l-23.2,25.551a3.407,3.407,0,0,1-2.453,1.117A.477.477,0,0,0,148.044,194.187Z" transform="translate(-109.377 -134.023)" fill="#fff"/>
</svg>
