<svg id="paper-plane" xmlns="http://www.w3.org/2000/svg" width="17.514" height="17.514" viewBox="0 0 17.514 17.514">
  <g id="Сгруппировать_80" data-name="Сгруппировать 80" transform="translate(1.847 0)">
    <g id="Сгруппировать_79" data-name="Сгруппировать 79" transform="translate(0 0)">
      <path id="Контур_83" data-name="Контур 83" d="M69.494.045a.342.342,0,0,0-.344,0L62.882,3.754a.342.342,0,1,0,.348.589l4.5-2.66L59.35,10.376,55.183,9.1l5.438-3.216a.342.342,0,0,0-.348-.589l-6.105,3.61a.342.342,0,0,0,.074.622l4.976,1.522,2.2,4,.007.011a.341.341,0,0,0,.532.069l2.524-2.467,4.748,1.453a.342.342,0,0,0,.442-.327V.342A.342.342,0,0,0,69.494.045ZM61.432,11.262a.342.342,0,0,0-.061.195v2.093l-1.5-2.729,6.634-6.883Zm.623,2.808V11.919l1.676.513Zm6.928-.747-6.722-2.056,6.722-9.7Z" transform="translate(-53.999 0)" fill="#286d74"/>
    </g>
  </g>
  <g id="Сгруппировать_82" data-name="Сгруппировать 82" transform="translate(1.847 11.79)">
    <g id="Сгруппировать_81" data-name="Сгруппировать 81">
      <path id="Контур_84" data-name="Контур 84" d="M57.777,344.748a.342.342,0,0,0-.484,0L54.1,347.942a.342.342,0,0,0,.484.484l3.193-3.193A.342.342,0,0,0,57.777,344.748Z" transform="translate(-53.999 -344.648)" fill="#286d74"/>
    </g>
  </g>
  <g id="Сгруппировать_84" data-name="Сгруппировать 84" transform="translate(0 16.044)">
    <g id="Сгруппировать_83" data-name="Сгруппировать 83" transform="translate(0)">
      <path id="Контур_85" data-name="Контур 85" d="M1.371,469.1a.342.342,0,0,0-.484,0l-.787.787a.342.342,0,1,0,.484.484l.787-.787A.342.342,0,0,0,1.371,469.1Z" transform="translate(0 -469.001)" fill="#286d74"/>
    </g>
  </g>
  <g id="Сгруппировать_86" data-name="Сгруппировать 86" transform="translate(4.296 16.81)">
    <g id="Сгруппировать_85" data-name="Сгруппировать 85">
      <path id="Контур_86" data-name="Контур 86" d="M126.164,491.51a.342.342,0,1,0,.1.242A.345.345,0,0,0,126.164,491.51Z" transform="translate(-125.58 -491.41)" fill="#286d74"/>
    </g>
  </g>
  <g id="Сгруппировать_88" data-name="Сгруппировать 88" transform="translate(5.149 14.265)">
    <g id="Сгруппировать_87" data-name="Сгруппировать 87">
      <path id="Контур_87" data-name="Контур 87" d="M152.81,417.106a.342.342,0,0,0-.484,0l-1.691,1.691a.342.342,0,0,0,.484.484l1.691-1.691A.342.342,0,0,0,152.81,417.106Z" transform="translate(-150.534 -417.006)" fill="#286d74"/>
    </g>
  </g>
  <g id="Сгруппировать_90" data-name="Сгруппировать 90" transform="translate(10.983 14.135)">
    <g id="Сгруппировать_89" data-name="Сгруппировать 89">
      <path id="Контур_88" data-name="Контур 88" d="M323.333,413.311a.342.342,0,0,0-.484,0l-1.7,1.7a.342.342,0,1,0,.484.484l1.7-1.7A.342.342,0,0,0,323.333,413.311Z" transform="translate(-321.053 -413.211)" fill="#286d74"/>
    </g>
  </g>
  <g id="Сгруппировать_92" data-name="Сгруппировать 92" transform="translate(9.114 4.563)">
    <g id="Сгруппировать_91" data-name="Сгруппировать 91">
      <path id="Контур_89" data-name="Контур 89" d="M267.014,133.48a.342.342,0,1,0,.1.242A.345.345,0,0,0,267.014,133.48Z" transform="translate(-266.43 -133.38)" fill="#286d74"/>
    </g>
  </g>
</svg>
