<svg xmlns="http://www.w3.org/2000/svg" width="86.433" height="81.45" viewBox="0 0 86.433 81.45">
  <g id="warning" transform="translate(0 -14.759)">
    <g id="Сгруппировать_157" data-name="Сгруппировать 157" transform="translate(0 14.759)">
      <path id="Контур_177" data-name="Контур 177" d="M84.637,77.084,54.1,20.957a12.662,12.662,0,0,0-21.776,0L1.8,77.084A12.655,12.655,0,0,0,12.683,96.209H73.749A12.657,12.657,0,0,0,84.637,77.084Zm-41.421,9a5.064,5.064,0,1,1,5.064-5.064A5.071,5.071,0,0,1,43.217,86.08Zm5.064-20.258a5.064,5.064,0,0,1-10.129,0V40.5a5.064,5.064,0,1,1,10.129,0Z" transform="translate(0 -14.759)" fill="red"/>
    </g>
  </g>
</svg>
