<svg id="mercedes-benz" xmlns="http://www.w3.org/2000/svg" width="37.77" height="37.427" viewBox="0 0 37.77 37.427">
  <g id="Сгруппировать_49" data-name="Сгруппировать 49">
    <g id="Сгруппировать_48" data-name="Сгруппировать 48">
      <path id="Контур_51" data-name="Контур 51" d="M32.237,5.48a19.006,19.006,0,0,0-26.7,0,18.591,18.591,0,0,0,0,26.466A19.009,19.009,0,0,0,31.06,33.018a.545.545,0,0,0,.066-.773.557.557,0,0,0-.78-.065A17.9,17.9,0,0,1,6.315,31.17,17.425,17.425,0,0,1,1.107,18.71a17.779,17.779,0,0,1,35.557,0,17.5,17.5,0,0,1-4.525,11.744.545.545,0,0,0,.043.774.557.557,0,0,0,.781-.043A18.588,18.588,0,0,0,32.237,5.48Z" fill="#99c4c8"/>
    </g>
  </g>
  <g id="Сгруппировать_51" data-name="Сгруппировать 51" transform="translate(2.559 2.555)">
    <g id="Сгруппировать_50" data-name="Сгруппировать 50">
      <path id="Контур_52" data-name="Контур 52" d="M51.329,34.951A16.158,16.158,0,1,0,67.656,51.109,16.261,16.261,0,0,0,51.329,34.951ZM36.111,51.109A15.15,15.15,0,0,1,50.635,36.064L47.758,48.905,37.73,57.863A14.842,14.842,0,0,1,36.111,51.109Zm14.664-10.6v9.526l-8.3,5.072,6.16-5.5a.548.548,0,0,0,.145-.207.539.539,0,0,0,.025-.081Zm.554,25.662a15.256,15.256,0,0,1-12.942-7.147L46.8,55.868a.547.547,0,0,0,.322-.707.556.556,0,0,0-.714-.319L42.787,56.2l8.542-5.218L59.873,56.2l-8.348-3.128a.561.561,0,0,0-.393,0l-2.487.932a.547.547,0,0,0-.322.707.556.556,0,0,0,.714.319l2.291-.858,12.943,4.849A15.257,15.257,0,0,1,51.329,66.169ZM54.9,48.905l-.587-2.619a.554.554,0,0,0-.661-.417.548.548,0,0,0-.421.654l.62,2.768a.543.543,0,0,0,.174.31l6.158,5.5-8.3-5.07V40.512l.166.741c0,.007,0,.013.006.02l.675,3.011a.554.554,0,0,0,.661.417.548.548,0,0,0,.421-.654l-1.789-7.983A15.15,15.15,0,0,1,66.548,51.109a14.842,14.842,0,0,1-1.619,6.755Z" transform="translate(-35.003 -34.951)" fill="#99c4c8"/>
    </g>
  </g>
</svg>
