<svg id="bmw" xmlns="http://www.w3.org/2000/svg" width="37.769" height="37.769" viewBox="0 0 37.769 37.769">
  <g id="Сгруппировать_53" data-name="Сгруппировать 53" transform="translate(16.862 1.788)">
    <g id="Сгруппировать_52" data-name="Сгруппировать 52">
      <path id="Контур_53" data-name="Контур 53" d="M231.345,24.24a1.278,1.278,0,0,1-1.473,0,1.287,1.287,0,0,0-1.285,1.285v2.48a.553.553,0,0,0,1.107,0v-2.48a.179.179,0,0,1,.358,0v2.48a.553.553,0,0,0,.553.553h.009a.553.553,0,0,0,.553-.553v-2.48a.179.179,0,0,1,.358,0v2.48a.553.553,0,0,0,1.107,0v-2.48A1.287,1.287,0,0,0,231.345,24.24Z" transform="translate(-228.586 -24.24)" fill="#99c4c8"/>
    </g>
  </g>
  <g id="Сгруппировать_55" data-name="Сгруппировать 55" transform="translate(9.088 3.541)">
    <g id="Сгруппировать_54" data-name="Сгруппировать 54">
      <path id="Контур_54" data-name="Контур 54" d="M127.477,50.05a1.33,1.33,0,0,0-.615-.557,1.339,1.339,0,0,0-2-1.311l-1.391.794a.553.553,0,0,0-.206.755l.781,1.368.781,1.368a.553.553,0,0,0,.755.206l1.391-.794A1.343,1.343,0,0,0,127.477,50.05Zm-2.74.02-.233-.407.911-.52a.235.235,0,1,1,.233.407Zm1.692.849-.911.52-.233-.407.494-.282.416-.238a.235.235,0,0,1,.233.407Z" transform="translate(-123.196 -48.006)" fill="#99c4c8"/>
    </g>
  </g>
  <g id="Сгруппировать_57" data-name="Сгруппировать 57" transform="translate(23.725 3.049)">
    <g id="Сгруппировать_56" data-name="Сгруппировать 56">
      <path id="Контур_55" data-name="Контур 55" d="M326.331,42.859a.553.553,0,0,0-.755.206l-1.229,2.154a.179.179,0,1,1-.311-.177l1.229-2.154a.553.553,0,0,0-.206-.755l0,0,0,0a.553.553,0,0,0-.755.206l-1.229,2.154a.179.179,0,1,1-.311-.177l1.229-2.154a.553.553,0,1,0-.961-.548L321.8,43.764a1.285,1.285,0,0,0,1.114,1.922c.04,0,.081,0,.12-.006a1.285,1.285,0,0,0,1.16.737,1.292,1.292,0,0,0,.341-.046,1.277,1.277,0,0,0,.777-.6l1.229-2.154A.553.553,0,0,0,326.331,42.859Z" transform="translate(-321.627 -41.331)" fill="#99c4c8"/>
    </g>
  </g>
  <g id="Сгруппировать_59" data-name="Сгруппировать 59">
    <g id="Сгруппировать_58" data-name="Сгруппировать 58">
      <path id="Контур_56" data-name="Контур 56" d="M32.238,5.531A18.885,18.885,0,0,0,6.453,4.669a.553.553,0,1,0,.729.833A17.775,17.775,0,1,1,5.269,7.452a.553.553,0,0,0-.847-.712A18.885,18.885,0,1,0,32.238,5.531Z" fill="#99c4c8"/>
    </g>
  </g>
  <g id="Сгруппировать_61" data-name="Сгруппировать 61" transform="translate(6.676 6.676)">
    <g id="Сгруппировать_60" data-name="Сгруппировать 60">
      <path id="Контур_57" data-name="Контур 57" d="M102.708,90.5a12.208,12.208,0,1,0,12.208,12.208A12.222,12.222,0,0,0,102.708,90.5Zm-.553,1.12v10.535H91.62A11.117,11.117,0,0,1,102.155,91.62Zm1.106,22.176v-1.658a.553.553,0,1,0-1.106,0V113.8A11.117,11.117,0,0,1,91.62,103.262h10.535v6.5a.553.553,0,1,0,1.106,0v-6.5h1.807a.553.553,0,0,0,0-1.106h-1.807V91.62A11.117,11.117,0,0,1,113.8,102.155h-6.33a.553.553,0,1,0,0,1.106h6.33A11.117,11.117,0,0,1,103.262,113.8Z" transform="translate(-90.5 -90.5)" fill="#99c4c8"/>
    </g>
  </g>
</svg>
