<svg id="skoda-6" xmlns="http://www.w3.org/2000/svg" width="37.77" height="37.77" viewBox="0 0 37.77 37.77">
  <path id="Контур_58" data-name="Контур 58" d="M18.893,37.77A18.885,18.885,0,1,0,0,18.893,18.874,18.874,0,0,0,18.893,37.77Z" fill="#99c4c8"/>
  <path id="Контур_59" data-name="Контур 59" d="M31.291,49.3a18.428,18.428,0,1,0-18.42-18.42A18.418,18.418,0,0,0,31.291,49.3Z" transform="translate(-12.398 -11.982)" fill="#fff"/>
  <path id="Контур_60" data-name="Контур 60" d="M44.928,62.811a17.893,17.893,0,1,0-17.9-17.884A17.9,17.9,0,0,0,44.928,62.811Z" transform="translate(-26.035 -26.034)" fill="#99c4c8"/>
  <path id="Контур_61" data-name="Контур 61" d="M214.375,82.259c6.316,0,11.426-4.82,11.426-10.742,0-5.938-5.11-10.759-11.426-10.759s-11.443,4.82-11.443,10.759C202.932,77.439,208.059,82.259,214.375,82.259Zm2.111-26.227a3.038,3.038,0,0,1,.419,2.315,1.912,1.912,0,0,1-1.441,1.355c-1.072.126-2.379.378-3.334-.583a2.957,2.957,0,0,1-.335-2.5c.268-.961,1.441-1.213,2.4-1.276A3.252,3.252,0,0,1,216.486,56.032Z" transform="translate(-195.481 -53.307)" fill="#fff"/>
  <path id="Контур_62" data-name="Контур 62" d="M467.9,78.421c.063.583.252,1.481-.189,1.985a1.2,1.2,0,0,1-1.339.126,2.038,2.038,0,0,1-.315-1.922.961.961,0,0,1,.709-.835A.99.99,0,0,1,467.9,78.421Z" transform="translate(-448.173 -74.909)" fill="#99c4c8"/>
  <path id="Контур_63" data-name="Контур 63" d="M627.513,100.723a2.443,2.443,0,0,1-.378,2.111,2.029,2.029,0,0,1-1.67.977,9.036,9.036,0,0,1-2.946-1.465l2.032-3.67C625.591,99.242,626.867,99.573,627.513,100.723Z" transform="translate(-598.665 -95.052)" fill="#fff"/>
  <path id="Контур_64" data-name="Контур 64" d="M666.392,136.043a1.784,1.784,0,0,1-.709,1.607c-.5.394-1.544-.378-1.544-.378l1.15-2.126C665.746,135.413,666.266,135.539,666.392,136.043Z" transform="translate(-638.778 -130.183)" fill="#99c4c8"/>
  <path id="Контур_65" data-name="Контур 65" d="M94.335,242c-.4.441-.874.835-.94,1.4a.4.4,0,0,0,.412.394c.66-.52,1.335-1.607,2.275-1.355a1.3,1.3,0,0,1,1.072.835c.28,1.15-.594,2.127-1.4,2.883l-.742-.441c.544-.457,1.335-1.15,1.005-1.859-1.038-.488-1.2,1.339-2.275,1.339a1.405,1.405,0,0,1-1.286-.835,3.256,3.256,0,0,1-.066-.52,2.2,2.2,0,0,1,.33-1.087,5.478,5.478,0,0,1,.412-.567l.61-.646Zm-1.945,1.087c-.148.016-.412.047-.577.063.033-.11.181-.457.181-.457l.528-.079-.247-.41c.115-.157.2-.331.313-.488l.3.52Zm30.137.819-3.3,3.512-.626-1.276.791-.725-.891-1.465-1.005.22-.759-1.024,4.831-.772Z" transform="translate(-88.442 -232.278)" fill="#fff"/>
  <path id="Контур_66" data-name="Контур 66" d="M808.429,292.712l-.567-1.024,1.937-.378Z" transform="translate(-776.834 -280.197)" fill="#99c4c8"/>
  <path id="Контур_67" data-name="Контур 67" d="M240.023,773.707l-1.033-.614.22-.677-.931-.646-.677.425c-.271-.221-.525-.441-.779-.662l2.691-1.859,1.388.772Zm16.385-2.614a1.135,1.135,0,0,1-.355,1.417,2.429,2.429,0,0,1-1.929.772,1.957,1.957,0,0,1-1.439-1.213,1.334,1.334,0,0,1,.271-1.417,3.316,3.316,0,0,1,1.862-.835A2.093,2.093,0,0,1,256.409,771.092Z" transform="translate(-228.129 -740.048)" fill="#fff"/>
  <path id="Контур_68" data-name="Контур 68" d="M288.95,795.48l-.642-.457.913-.761Zm15.861-.253a.692.692,0,0,1-.541,1.031c-.71.136-.947-.642-1.184-1.048a.74.74,0,0,1,.541-1.031C304.321,794.043,304.54,794.821,304.811,795.227Z" transform="translate(-277.545 -763.709)" fill="#99c4c8"/>
  <path id="Контур_69" data-name="Контур 69" d="M381.33,820.02c-.016.331.6.551.819.2.079-.236.284-1.4.41-2.111.331.079.709.158.961.221-.079.535-.157,2.031-.8,2.6a1.911,1.911,0,0,1-1.607,0,1.1,1.1,0,0,1-.851-1.213l.473-1.985.977.2Zm5.875-1.355.457,2.284-1.008.2-.457-2.3-.788.189-.157-.693,2.615-.583.189.693Z" transform="translate(-365.619 -786.345)" fill="#fff"/>
  <path id="Контур_70" data-name="Контур 70" d="M243.46,228.3c2.534,2.535,3.932,5.964,2.84,9.6,0,0-.32.867-.408,1.22a2.69,2.69,0,0,0-.058.623.712.712,0,0,0,.743.244c.247-.23-.189-.529.058-.813a4.612,4.612,0,0,1,3.16,1.437c-.8.908-2.01,1.775-3.247,1.491-.175-.23.393-.529.015-.759l-9.014-.014c-.262.014-.743.732-1.019.8a2.75,2.75,0,0,1-1.223-.027c-.379-.353-.466-.921-.714-1.328-.248-.5-1.369-1.017-1.18-1.4a7.059,7.059,0,0,1,3.626.027c.524.217,1.063.664,1.616.529a.164.164,0,0,0,.1-.095,4.484,4.484,0,0,0-2.869-4.107,2.634,2.634,0,0,0-1.413-.244,2.572,2.572,0,0,1-1.471-.163c-.306-.217-.248-.949-.015-1.667a6.57,6.57,0,0,1,.437-.962c.728-1.491,3.029.095,3.335.244.393.19.8.6.918.068-.029-.339-.743-.664-1.209-.895-1.369-.678-2.243-.515-1.806-1.288a5.369,5.369,0,0,1,1.165-1.233,4.548,4.548,0,0,1,1.951-1.044c1.019-.095,2.112,1.247,2.112,1.247l1.3,1.342c.248.135.393-.014.422-.108.073-.2-.131-.42-.131-.42s-.6-.678-.917-.976-1.209-1.1-1.209-1.1c-.35-.569.306-.746.67-.8C241.2,227.62,242.5,227.322,243.46,228.3Z" transform="translate(-222.869 -217.474)" fill="#99c4c8"/>
  <path id="Контур_71" data-name="Контур 71" d="M239.567,113.15c.819,0,1.208-.125,1.208-.945s-.389-.9-1.208-.9-1.238.082-1.238.9S238.748,113.15,239.567,113.15Zm-8.49-15.641c.756.473,1.7.788,2.457,1.323l-1.292.614-2.268-1.181.031-2.41,1.166-.614a12.394,12.394,0,0,1-.095,2.268Zm-.914,3.308L227.816,97.3l.977-.693,2.363,3.465Z" transform="translate(-218.958 -91.744)" fill="#fff"/>
</svg>
