<svg xmlns="http://www.w3.org/2000/svg" width="37.312" height="25.287" viewBox="0 0 37.312 25.287">
  <g id="toyota" transform="translate(0 -82.5)">
    <g id="Сгруппировать_63" data-name="Сгруппировать 63" transform="translate(0 82.5)">
      <g id="Сгруппировать_62" data-name="Сгруппировать 62" transform="translate(0 0)">
        <path id="Контур_72" data-name="Контур 72" d="M31.764,86.135A23.8,23.8,0,0,0,18.656,82.5a25.7,25.7,0,0,0-9.7,1.833.547.547,0,0,0,.416,1.011,24.592,24.592,0,0,1,9.281-1.751c9.684,0,17.563,5.182,17.563,11.551s-7.879,11.551-17.563,11.551S1.093,101.513,1.093,95.144c0-3.38,2.256-6.584,6.19-8.791a.547.547,0,1,0-.535-.953C2.46,87.805,0,91.357,0,95.144c0,3.42,1.97,6.619,5.547,9.008a23.8,23.8,0,0,0,13.109,3.635,23.8,23.8,0,0,0,13.109-3.635c3.577-2.39,5.547-5.589,5.547-9.008S35.342,88.525,31.764,86.135Z" transform="translate(0 -82.5)" fill="#99c4c8"/>
      </g>
    </g>
    <g id="Сгруппировать_65" data-name="Сгруппировать 65" transform="translate(19.239 84.978)">
      <g id="Сгруппировать_64" data-name="Сгруппировать 64" transform="translate(0 0)">
        <path id="Контур_73" data-name="Контур 73" d="M272.831,118.876a15.889,15.889,0,0,0-8.259-2.365.547.547,0,0,0-.2,1.065c1.651.541,3.074,2.445,3.807,5.094a.546.546,0,0,0,.665.383,12.308,12.308,0,0,0,3.979-1.724,1.52,1.52,0,0,0,0-2.454Zm-.651,1.573a10.15,10.15,0,0,1-3.1,1.406,9.868,9.868,0,0,0-2.32-4.018,13.053,13.053,0,0,1,5.42,1.918.422.422,0,0,1,.178.346A.43.43,0,0,1,272.179,120.449Z" transform="translate(-263.999 -116.51)" fill="#99c4c8"/>
      </g>
    </g>
    <g id="Сгруппировать_67" data-name="Сгруппировать 67" transform="translate(8.62 84.978)">
      <g id="Сгруппировать_66" data-name="Сгруппировать 66" transform="translate(0 0)">
        <path id="Контур_74" data-name="Контур 74" d="M127.727,116.958a.548.548,0,0,0-.563-.447,15.967,15.967,0,0,0-8.255,2.355,1.52,1.52,0,0,0,0,2.454,12.228,12.228,0,0,0,3.984,1.733.546.546,0,0,0,.665-.383c.733-2.649,2.156-4.553,3.807-5.093A.547.547,0,0,0,127.727,116.958Zm-5.072,4.9a10.073,10.073,0,0,1-3.1-1.412.427.427,0,0,1,0-.694,13.132,13.132,0,0,1,5.42-1.911A9.866,9.866,0,0,0,122.655,121.854Z" transform="translate(-118.283 -116.51)" fill="#99c4c8"/>
      </g>
    </g>
    <g id="Сгруппировать_69" data-name="Сгруппировать 69" transform="translate(2.682 89.024)">
      <g id="Сгруппировать_68" data-name="Сгруппировать 68" transform="translate(0 0)">
        <path id="Контур_75" data-name="Контур 75" d="M65.749,172.17a.547.547,0,0,0-.88.222c-.348.973-1.5,1.933-3.232,2.7a.547.547,0,0,0,.443,1,7.721,7.721,0,0,0,3.459-2.611,6.724,6.724,0,0,1,2.124,4.666c0,2.376-1.536,4.66-4.324,6.432a18.792,18.792,0,0,1-7.626,2.635,7.676,7.676,0,0,0,1.66-1.989,14.118,14.118,0,0,0,1.785-7.157c0-.331-.01-.661-.029-.986.262-.065.52-.134.771-.207a.547.547,0,1,0-.3-1.05c-.376.109-.768.209-1.167.3a.547.547,0,0,0-.424.581c.039.442.059.9.059,1.362a13.017,13.017,0,0,1-1.629,6.595c-1,1.665-2.3,2.583-3.653,2.583-1.916,0-3.691-1.835-4.631-4.79a.547.547,0,0,0-1.042.331,9.331,9.331,0,0,0,2.751,4.428,18.8,18.8,0,0,1-7.634-2.636c-2.788-1.772-4.324-4.056-4.324-6.432a6.723,6.723,0,0,1,2.126-4.668c.986,1.524,3.29,2.829,6.407,3.6-.019.325-.029.655-.029.986a16.571,16.571,0,0,0,.181,2.453.547.547,0,1,0,1.081-.162,15.469,15.469,0,0,1-.169-2.291c0-.461.02-.919.059-1.362a.547.547,0,0,0-.424-.581c-3.424-.775-5.891-2.206-6.439-3.736a.547.547,0,0,0-.88-.222,8.085,8.085,0,0,0-3.007,5.979,7.192,7.192,0,0,0,1.329,4.08,11.827,11.827,0,0,0,3.5,3.275A21,21,0,0,0,52.783,188.5,20.993,20.993,0,0,0,63.925,185.5a11.825,11.825,0,0,0,3.5-3.275,7.193,7.193,0,0,0,1.329-4.08A8.087,8.087,0,0,0,65.749,172.17Z" transform="translate(-36.81 -172.03)" fill="#99c4c8"/>
      </g>
    </g>
    <g id="Сгруппировать_71" data-name="Сгруппировать 71" transform="translate(15.46 87.462)">
      <g id="Сгруппировать_70" data-name="Сгруппировать 70" transform="translate(0 0)">
        <path id="Контур_76" data-name="Контур 76" d="M218.517,154.454c-.689-2.311-1.964-3.864-3.172-3.864s-2.484,1.553-3.173,3.864a.547.547,0,0,0,.46.7,23.865,23.865,0,0,0,5.425,0,.547.547,0,0,0,.46-.7Zm-3.172-.24c-.648,0-1.289-.027-1.913-.079.606-1.6,1.463-2.452,1.913-2.452s1.306.848,1.912,2.452C216.633,154.188,215.993,154.215,215.345,154.215Z" transform="translate(-212.149 -150.59)" fill="#99c4c8"/>
      </g>
    </g>
    <g id="Сгруппировать_73" data-name="Сгруппировать 73" transform="translate(14.962 93.554)">
      <g id="Сгруппировать_72" data-name="Сгруппировать 72">
        <path id="Контур_77" data-name="Контур 77" d="M212.669,234.7a.546.546,0,0,0-.607-.505,27.483,27.483,0,0,1-6.1,0,.547.547,0,0,0-.607.505c-.023.331-.035.668-.035,1a12.044,12.044,0,0,0,1.163,5.368c.715,1.4,1.661,2.235,2.53,2.235,1.743,0,3.693-3.251,3.693-7.6C212.7,235.366,212.692,235.029,212.669,234.7Zm-2.1,5.873c-.614,1.2-1.267,1.639-1.556,1.639-.794,0-2.6-2.459-2.6-6.51q0-.181,0-.362a28.69,28.69,0,0,0,5.19,0q0,.181,0,.362A10.941,10.941,0,0,1,210.567,240.571Z" transform="translate(-205.318 -234.19)" fill="#99c4c8"/>
      </g>
    </g>
  </g>
</svg>
