<svg xmlns="http://www.w3.org/2000/svg" width="22" height="15.333" viewBox="0 0 22 15.333">
  <g id="chain" transform="translate(0 -77.579)">
    <g id="Сгруппировать_12" data-name="Сгруппировать 12" transform="translate(3.532 87.779)">
      <g id="Сгруппировать_11" data-name="Сгруппировать 11" transform="translate(0 0)">
        <path id="Контур_6" data-name="Контур 6" d="M83.585,315.188a.8.8,0,1,0,0,1.132A.8.8,0,0,0,83.585,315.188Z" transform="translate(-82.218 -314.954)" fill="#286d74"/>
      </g>
    </g>
    <g id="Сгруппировать_14" data-name="Сгруппировать 14" transform="translate(0 82.64)">
      <g id="Сгруппировать_13" data-name="Сгруппировать 13" transform="translate(0 0)">
        <path id="Контур_7" data-name="Контур 7" d="M8.106,199.442a5.584,5.584,0,0,1-2.68-4.09,4.331,4.331,0,0,1-1.011.839L2.1,197.579a4.331,4.331,0,1,0,5.943,5.943l1.388-2.312a4.331,4.331,0,0,1,.5-.672Zm-2.3,3.327a2.09,2.09,0,1,1,0-2.955A2.083,2.083,0,0,1,5.81,202.769Z" transform="translate(0 -195.352)" fill="#286d74"/>
      </g>
    </g>
    <g id="Сгруппировать_16" data-name="Сгруппировать 16" transform="translate(16.866 87.779)">
      <g id="Сгруппировать_15" data-name="Сгруппировать 15" transform="translate(0 0)">
        <path id="Контур_8" data-name="Контур 8" d="M393.9,315.187a.8.8,0,1,0,0,1.132A.8.8,0,0,0,393.9,315.187Z" transform="translate(-392.532 -314.953)" fill="#286d74"/>
      </g>
    </g>
    <g id="Сгруппировать_18" data-name="Сгруппировать 18" transform="translate(10.199 81.112)">
      <g id="Сгруппировать_17" data-name="Сгруппировать 17" transform="translate(0 0)">
        <path id="Контур_9" data-name="Контур 9" d="M238.742,160.031a.8.8,0,1,0,0,1.132A.8.8,0,0,0,238.742,160.031Z" transform="translate(-237.375 -159.797)" fill="#286d74"/>
      </g>
    </g>
    <g id="Сгруппировать_20" data-name="Сгруппировать 20" transform="translate(6.667 77.579)">
      <g id="Сгруппировать_19" data-name="Сгруппировать 19" transform="translate(0 0)">
        <path id="Контур_10" data-name="Контур 10" d="M168.389,84.867l-2.312-1.388a4.332,4.332,0,0,1-1.485-1.485L163.2,79.682a4.331,4.331,0,1,0-5.943,5.943l2.312,1.388a4.331,4.331,0,0,1,1.485,1.485l1.388,2.312a4.331,4.331,0,1,0,5.943-5.943Zm-7.42-1.477a2.09,2.09,0,1,1,0-2.955A2.083,2.083,0,0,1,160.969,83.39Zm6.667,6.667a2.09,2.09,0,1,1,0-2.955A2.083,2.083,0,0,1,167.636,90.057Z" transform="translate(-155.158 -77.579)" fill="#286d74"/>
      </g>
    </g>
  </g>
</svg>
