<svg id="clock-circular-outline" xmlns="http://www.w3.org/2000/svg" width="19" height="19" viewBox="0 0 19 19">
  <g id="Сгруппировать_28" data-name="Сгруппировать 28">
    <path id="Контур_15" data-name="Контур 15" d="M9.5,0A9.5,9.5,0,1,0,19,9.5,9.511,9.511,0,0,0,9.5,0Zm0,16.924A7.423,7.423,0,1,1,16.923,9.5,7.432,7.432,0,0,1,9.5,16.924Z" fill="#286d74"/>
    <path id="Контур_16" data-name="Контур 16" d="M258.4,144.042V140.06a.8.8,0,1,0-1.61,0V144.3c0,.013,0,.025,0,.037a.8.8,0,0,0,.232.608l3,3a.8.8,0,0,0,1.138-1.138Z" transform="translate(-248.076 -134.53)" fill="#286d74"/>
  </g>
</svg>
