<svg xmlns="http://www.w3.org/2000/svg" width="17" height="17" viewBox="0 0 17 17">
  <g id="mechanics" transform="translate(0 -0.005)">
    <g id="Сгруппировать_23" data-name="Сгруппировать 23" transform="translate(9.676 9.922)">
      <g id="Сгруппировать_22" data-name="Сгруппировать 22">
        <path id="Контур_12" data-name="Контур 12" d="M298.667,303.351l-2.33-3.9a.554.554,0,0,0-.476-.27h-1.339l-.462-.462c-.177-.008-.353-.021-.528-.046l-2.111,2.111.749.749v1.338a.554.554,0,0,0,.27.476l3.9,2.33a.554.554,0,0,0,.676-.084l1.568-1.568A.554.554,0,0,0,298.667,303.351Z" transform="translate(-291.422 -298.675)" fill="#286d74"/>
      </g>
    </g>
    <g id="Сгруппировать_25" data-name="Сгруппировать 25" transform="translate(0.001 0.006)">
      <g id="Сгруппировать_24" data-name="Сгруппировать 24" transform="translate(0 0)">
        <path id="Контур_13" data-name="Контур 13" d="M16.761,2.991a.555.555,0,0,0-.914-.206L13.58,5.054l-1.307-.261-.261-1.307,2.267-2.267A.555.555,0,0,0,14.073.3,4.43,4.43,0,0,0,8.3,5.625L3.526,10.4a3.324,3.324,0,1,0,3.135,3.135L11.44,8.761a4.43,4.43,0,0,0,5.321-5.769ZM3.344,14.83a1.109,1.109,0,1,1,1.109-1.109A1.11,1.11,0,0,1,3.344,14.83Z" transform="translate(-0.018 -0.049)" fill="#286d74"/>
      </g>
    </g>
    <g id="Сгруппировать_27" data-name="Сгруппировать 27" transform="translate(0 0.005)">
      <g id="Сгруппировать_26" data-name="Сгруппировать 26" transform="translate(0 0)">
        <path id="Контур_14" data-name="Контур 14" d="M7.162,3.247,4.406.491a1.665,1.665,0,0,0-2.352,0L.486,2.059a1.665,1.665,0,0,0,0,2.352l3.7,3.7L5.757,6.545,2.38,3.169a.554.554,0,0,1,.784-.784L6.54,5.761l.543-.543A5.559,5.559,0,0,1,7.162,3.247Z" transform="translate(0 -0.005)" fill="#286d74"/>
      </g>
    </g>
  </g>
</svg>
