<svg xmlns="http://www.w3.org/2000/svg" xmlns:xlink="http://www.w3.org/1999/xlink" width="19.641" height="19.641" viewBox="0 0 19.641 19.641">
  <defs>
    <linearGradient id="linear-gradient" x1="0.084" y1="0.916" x2="0.916" y2="0.084" gradientUnits="objectBoundingBox">
      <stop offset="0" stop-color="#ffd600"/>
      <stop offset="0.5" stop-color="#ff0100"/>
      <stop offset="1" stop-color="#d800b9"/>
    </linearGradient>
    <linearGradient id="linear-gradient-2" x1="0.146" y1="0.854" x2="0.854" y2="0.146" gradientUnits="objectBoundingBox">
      <stop offset="0" stop-color="#ff6400"/>
      <stop offset="0.5" stop-color="#ff0100"/>
      <stop offset="1" stop-color="#fd0056"/>
    </linearGradient>
    <linearGradient id="linear-gradient-3" x1="0.146" y1="0.854" x2="0.854" y2="0.146" gradientUnits="objectBoundingBox">
      <stop offset="0" stop-color="#f30072"/>
      <stop offset="1" stop-color="#e50097"/>
    </linearGradient>
  </defs>
  <g id="in" transform="translate(0 0)">
    <path id="Контур_207" data-name="Контур 207" d="M19.582,5.772a7.21,7.21,0,0,0-.457-2.384,4.813,4.813,0,0,0-1.133-1.739A4.815,4.815,0,0,0,16.253.515,7.209,7.209,0,0,0,13.87.059C12.822.011,12.488,0,9.821,0s-3,.011-4.049.059A7.211,7.211,0,0,0,3.388.515,4.813,4.813,0,0,0,1.648,1.648,4.814,4.814,0,0,0,.515,3.388,7.209,7.209,0,0,0,.059,5.771C.011,6.819,0,7.153,0,9.82s.011,3,.059,4.049a7.208,7.208,0,0,0,.456,2.384,4.813,4.813,0,0,0,1.133,1.739,4.812,4.812,0,0,0,1.739,1.133,7.206,7.206,0,0,0,2.384.457c1.047.048,1.382.059,4.049.059s3-.011,4.049-.059a7.207,7.207,0,0,0,2.384-.457,5.021,5.021,0,0,0,2.872-2.872,7.208,7.208,0,0,0,.457-2.384c.048-1.047.059-1.382.059-4.049s-.011-3-.059-4.049Zm-1.768,8.018a5.434,5.434,0,0,1-.338,1.824,3.252,3.252,0,0,1-1.864,1.864,5.434,5.434,0,0,1-1.824.338c-1.035.047-1.346.057-3.968.057s-2.933-.01-3.969-.057a5.435,5.435,0,0,1-1.824-.338A3.043,3.043,0,0,1,2.9,16.742a3.042,3.042,0,0,1-.735-1.129,5.434,5.434,0,0,1-.338-1.824c-.047-1.035-.057-1.346-.057-3.968s.01-2.933.057-3.969a5.438,5.438,0,0,1,.338-1.824A3.045,3.045,0,0,1,2.9,2.9a3.041,3.041,0,0,1,1.129-.735,5.433,5.433,0,0,1,1.824-.338c1.035-.047,1.346-.057,3.968-.057h0c2.622,0,2.933.01,3.969.057a5.435,5.435,0,0,1,1.824.338,3.045,3.045,0,0,1,1.129.735,3.041,3.041,0,0,1,.735,1.129,5.429,5.429,0,0,1,.338,1.824c.047,1.035.057,1.346.057,3.968s-.01,2.933-.057,3.969Zm0,0" transform="translate(0 0)" fill="url(#linear-gradient)"/>
    <path id="Контур_208" data-name="Контур 208" d="M129.582,124.539a5.043,5.043,0,1,0,5.043,5.043A5.043,5.043,0,0,0,129.582,124.539Zm0,8.317a3.274,3.274,0,1,1,3.274-3.274A3.274,3.274,0,0,1,129.582,132.856Zm0,0" transform="translate(-119.762 -119.762)" fill="url(#linear-gradient-2)"/>
    <path id="Контур_209" data-name="Контур 209" d="M364.286,89.8a1.178,1.178,0,1,1-1.178-1.179A1.178,1.178,0,0,1,364.286,89.8Zm0,0" transform="translate(-348.045 -85.226)" fill="url(#linear-gradient-3)"/>
  </g>
</svg>
