<svg xmlns="http://www.w3.org/2000/svg" width="28.912" height="34.524" viewBox="0 0 28.912 34.524">
  <g id="icon" transform="translate(-0.882 -0.92)">
    <path id="cloud" d="M54.665,190.153s4.439.159,6.443-1.492c2.322-1.917,2.691-3.106,2.824-4.4.082-.8,0-8.226,0-15.053a6.04,6.04,0,0,0-2.05-4.157,6.5,6.5,0,0,0-3.977-2H42.215a6.4,6.4,0,0,0-3.921,2.025,6.058,6.058,0,0,0-2.014,4.152c0,6.822-.072,14.233,0,15.038.133,1.3.513,2.486,2.793,4.4,1.978,1.65,6.366,1.481,6.366,1.481L50.193,196Z" transform="translate(-34.77 -161.53)" fill="#286d74" stroke="#296e75" stroke-miterlimit="10" stroke-width="1.2"/>
    <path id="ключ" d="M49.4,189.593a.308.308,0,0,0,.425,0l7.319-7.581s3.352.513,5.371-1.486c2.332-2.317,1.122-5.715,1.122-5.715l-3.285,2.681-1.563-1.538,2.593-3.352s-3.434-1.117-5.684,1.276c-1.953,2.05-1.343,5.412-1.343,5.412L46.979,186.8a.308.308,0,0,0,0,.425Z" transform="translate(-39.959 -166.059)" fill="#fff" stroke="#296e75" stroke-miterlimit="10" stroke-width="1.2"/>
  </g>
</svg>
