<svg xmlns="http://www.w3.org/2000/svg" width="160.393" height="34.524" viewBox="0 0 160.393 34.524">
  <g id="logo" transform="translate(-0.882 -3.137)">
    <g id="icon" transform="translate(0 2.217)">
      <path id="cloud" d="M54.665,190.153s4.439.159,6.443-1.492c2.322-1.917,2.691-3.106,2.824-4.4.082-.8,0-8.226,0-15.053a6.04,6.04,0,0,0-2.05-4.157,6.5,6.5,0,0,0-3.977-2H42.215a6.4,6.4,0,0,0-3.921,2.025,6.058,6.058,0,0,0-2.014,4.152c0,6.822-.072,14.233,0,15.038.133,1.3.513,2.486,2.793,4.4,1.978,1.65,6.366,1.481,6.366,1.481L50.193,196Z" transform="translate(-34.77 -161.53)" fill="#286d74" stroke="#296e75" stroke-miterlimit="10" stroke-width="1.2"/>
      <path id="ключ" d="M49.4,189.593a.308.308,0,0,0,.425,0l7.319-7.581s3.352.513,5.371-1.486c2.332-2.317,1.122-5.715,1.122-5.715l-3.285,2.681-1.563-1.538,2.593-3.352s-3.434-1.117-5.684,1.276c-1.953,2.05-1.343,5.412-1.343,5.412L46.979,186.8a.308.308,0,0,0,0,.425Z" transform="translate(-39.959 -166.059)" fill="#fff" stroke="#296e75" stroke-miterlimit="10" stroke-width="1.2"/>
    </g>
    <g id="текст" transform="translate(-4.633 7.199)">
      <path id="Контур_119" data-name="Контур 119" d="M144.05,183.5h-6.235l-.694,1.781a1.012,1.012,0,0,1-.892.691h-3.166a.477.477,0,0,1-.493-.691l5.541-12.468a1.035,1.035,0,0,1,.892-.691h4.052a1.012,1.012,0,0,1,.892.672l5.541,12.487a.477.477,0,0,1-.493.691h-3.361a1.012,1.012,0,0,1-.892-.691Zm-4.85-3.267h3.465l-1.583-3.958h-.2Z" transform="translate(-81.696 -166.183)" fill="#296e75"/>
      <path id="Контур_120" data-name="Контур 120" d="M201.269,178.54v.2s2.968.594,2.968,3.166c0,2.177-1.882,4.059-6.038,4.059h-7.916a.675.675,0,0,1-.694-.691V172.8a.675.675,0,0,1,.694-.691h7.137c4.059,0,5.84,1.781,5.84,3.861A2.837,2.837,0,0,1,201.269,178.54Zm-7.329-3.264v1.989H197.4c.892,0,1.3-.4,1.3-.99s-.376-.973-1.3-.973H193.94Zm0,5.145V182.8H198.2c.99,0,1.486-.5,1.486-1.187s-.493-1.187-1.486-1.187Z" transform="translate(-120.254 -166.175)" fill="#296e75"/>
      <path id="Контур_121" data-name="Контур 121" d="M250.614,174.779a.675.675,0,0,1-.691.694h-4.159v9.8a.675.675,0,0,1-.694.691H242.1a.675.675,0,0,1-.694-.691v-9.8h-4.153a.678.678,0,0,1-.694-.694V172.8a.675.675,0,0,1,.694-.691h12.653a.675.675,0,0,1,.691.691v1.979Z" transform="translate(-151.986 -166.175)" fill="#296e75"/>
      <path id="Контур_122" data-name="Контур 122" d="M298.561,178.212c0,4.454-2.868,7.322-8.111,7.322s-8.111-2.871-8.111-7.322,2.871-7.322,8.111-7.322S298.561,173.758,298.561,178.212Zm-4.542,0c0-2.673-1.385-4.059-3.569-4.059s-3.569,1.385-3.569,4.059,1.385,4.059,3.569,4.059,3.559-1.385,3.559-4.059Z" transform="translate(-182.914 -165.352)" fill="#296e75"/>
      <path id="Контур_123" data-name="Контур 123" d="M355.881,185.271a.678.678,0,0,1-.694.691H340.344a.675.675,0,0,1-.694-.691V172.8a.675.675,0,0,1,.694-.691h2.969a.675.675,0,0,1,.691.691v9.8h5.541v-9.8a.675.675,0,0,1,.691-.691H353.2a.675.675,0,0,1,.694.691v9.8h1.3a.678.678,0,0,1,.694.694v1.979Z" transform="translate(-221.63 -166.175)" fill="#296e75"/>
      <path id="Контур_124" data-name="Контур 124" d="M408.62,174.779a.678.678,0,0,1-.694.694h-8.412v1.791h6.236a.675.675,0,0,1,.691.691v1.979a.675.675,0,0,1-.691.691h-6.236V182.6h8.412a.678.678,0,0,1,.694.694v1.979a.675.675,0,0,1-.694.691H395.854a.675.675,0,0,1-.694-.691V172.8a.675.675,0,0,1,.694-.691h12.072a.675.675,0,0,1,.694.691v1.979Z" transform="translate(-259.131 -166.175)" fill="#296e75"/>
      <path id="Контур_125" data-name="Контур 125" d="M446.833,181.807l-2.472,3.465a1.424,1.424,0,0,1-1.187.691H439.7c-.493,0-.714-.4-.493-.691l4.74-6.433L439.6,172.8c-.217-.3,0-.691.5-.691h3.371a1.453,1.453,0,0,1,1.187.691l2.177,3.267h.2L449.2,172.8a1.453,1.453,0,0,1,1.187-.691h3.364c.5,0,.714.4.5.691l-4.354,6.038,4.759,6.433c.217.3,0,.691-.493.691H450.69a1.424,1.424,0,0,1-1.187-.691l-2.472-3.465Z" transform="translate(-288.834 -166.176)" fill="#296e75"/>
    </g>
  </g>
</svg>
