<svg xmlns="http://www.w3.org/2000/svg" width="16.972" height="17.008" viewBox="0 0 16.972 17.008">
  <path id="Контур_11" data-name="Контур 11" d="M17.067,12.482l-2.374-2.374a1.579,1.579,0,0,0-2.628.593A1.615,1.615,0,0,1,10.2,11.719,7.319,7.319,0,0,1,5.792,7.311,1.536,1.536,0,0,1,6.809,5.446,1.579,1.579,0,0,0,7.4,2.819L5.029.445a1.693,1.693,0,0,0-2.289,0L1.13,2.056c-1.611,1.7.17,6.188,4.154,10.172s8.477,5.849,10.172,4.154l1.611-1.611A1.693,1.693,0,0,0,17.067,12.482Z" transform="translate(-0.539 0)" fill="#286d74"/>
</svg>
