<svg xmlns="http://www.w3.org/2000/svg" width="19.153" height="16.204" viewBox="0 0 19.153 16.204">
  <path id="tg" d="M18.857.444A1.243,1.243,0,0,0,17.87,0a1.936,1.936,0,0,0-.689.137L.969,6.326c-.86.328-.976.821-.969,1.086s.151.75,1.029,1.029l.016,0,3.363.962,1.819,5.2a1.57,1.57,0,0,0,1.453,1.149,1.719,1.719,0,0,0,1.163-.5l2.08-1.915,3.017,2.429h0l.029.023.008.006a1.742,1.742,0,0,0,1.059.4h0a1.486,1.486,0,0,0,1.417-1.317L19.109,1.77A1.567,1.567,0,0,0,18.857.444ZM5.533,9.225,12.021,5.91,7.981,10.2a.56.56,0,0,0-.136.25l-.779,3.155Zm2.549,5.212c-.027.025-.054.047-.081.067l.723-2.927,1.315,1.059Zm9.928-12.89L15.353,14.664c-.026.126-.107.418-.317.418a.654.654,0,0,1-.368-.159L11.249,12.17h0L9.213,10.531l5.842-6.208a.561.561,0,0,0-.664-.884L4.783,8.348,1.374,7.373,17.582,1.186a.823.823,0,0,1,.288-.063c.034,0,.1,0,.118.032a.535.535,0,0,1,.021.393Zm0,0" transform="translate(0)" fill="#039be5"/>
</svg>
