<svg xmlns="http://www.w3.org/2000/svg" width="18.381" height="20.069" viewBox="0 0 18.381 20.069">
  <g id="viber" transform="translate(-1.38 0.013)">
    <path id="Контур_200" data-name="Контур 200" d="M19.573,11.605c.6-5.036-.287-8.215-1.885-9.652h0C15.11-.5,6.4-.867,3.318,2.062,1.933,3.5,1.445,5.6,1.392,8.2s-.117,7.483,4.429,8.806h0l0,2.021s-.031.819.492.983c.6.194.869-.186,2.73-2.409a17.026,17.026,0,0,0,5.772-.439c.628-.211,4.183-.681,4.758-5.559ZM9.349,16.181S7.38,18.637,6.767,19.274c-.2.207-.42.188-.417-.223,0-.27.015-3.355.015-3.355-3.854-1.1-3.627-5.259-3.585-7.432S3.22,4.31,4.393,3.111C7.1.573,14.733,1.141,16.678,2.969c2.378,2.108,1.531,8.063,1.536,8.266-.489,4.072-3.37,4.33-3.9,4.507a15.708,15.708,0,0,1-4.966.439Z" transform="translate(0 0)" fill="#8e24aa"/>
    <path id="Контур_201" data-name="Контур 201" d="M12.174,4.3a.253.253,0,0,0,0,.505c2.5.019,4.551,1.759,4.573,4.949a.245.245,0,1,0,.489,0h0C17.209,6.31,14.965,4.316,12.174,4.3Z" transform="translate(-1.736 -0.709)" fill="#8e24aa"/>
    <path id="Контур_202" data-name="Контур 202" d="M15.542,9.482a.245.245,0,1,0,.489.012,3.384,3.384,0,0,0-3.324-3.622.254.254,0,0,0-.034.505,2.885,2.885,0,0,1,2.87,3.1Z" transform="translate(-1.821 -0.968)" fill="#8e24aa"/>
    <path id="Контур_203" data-name="Контур 203" d="M13.992,11.493a.772.772,0,0,0-1.007.145l-.363.47a.65.65,0,0,1-.53.207A4.849,4.849,0,0,1,8.9,9.015a.7.7,0,0,1,.2-.548l.455-.376a.837.837,0,0,0,.14-1.042,10.858,10.858,0,0,0-1.245-1.8.673.673,0,0,0-.9-.153H7.538c-.723.423-1.514,1.214-1.261,2.029a13.668,13.668,0,0,0,3.756,5.665A14.442,14.442,0,0,0,13.9,15l.008.012c.787.262,1.552-.56,1.961-1.3v-.006a.716.716,0,0,0-.144-.924,9.85,9.85,0,0,0-1.734-1.288Z" transform="translate(-0.798 -0.823)" fill="#8e24aa"/>
    <path id="Контур_204" data-name="Контур 204" d="M13.124,8c.8.047,1.192.466,1.234,1.328a.245.245,0,1,0,.489-.023,1.677,1.677,0,0,0-1.7-1.81A.253.253,0,0,0,13.124,8Z" transform="translate(-1.894 -1.236)" fill="#8e24aa"/>
  </g>
</svg>
