<svg xmlns="http://www.w3.org/2000/svg" width="19.241" height="19.398" viewBox="0 0 19.241 19.398">
  <g id="wa" transform="translate(-1.69 0)">
    <path id="Контур_205" data-name="Контур 205" d="M10.84.011a9.625,9.625,0,0,0-8.1,13.979L1.716,18.948a.374.374,0,0,0,.453.44l4.858-1.151A9.621,9.621,0,1,0,10.84.011Zm5.8,14.936a7.538,7.538,0,0,1-8.679,1.421l-.677-.337L4.3,16.737l.627-3.044L4.6,13.041A7.54,7.54,0,0,1,5.984,4.294,7.533,7.533,0,1,1,16.637,14.948Z" transform="translate(0 0)" fill="#33c41d"/>
    <path id="Контур_206" data-name="Контур 206" d="M114.1,114.141l-1.864-.535a.7.7,0,0,0-.687.181l-.456.464a.679.679,0,0,1-.738.156,9.948,9.948,0,0,1-3.209-2.83.679.679,0,0,1,.054-.752l.4-.515a.7.7,0,0,0,.086-.706l-.784-1.773a.7.7,0,0,0-1.085-.248,3.134,3.134,0,0,0-1.212,1.849c-.132,1.306.428,2.952,2.545,4.928,2.446,2.283,4.405,2.585,5.681,2.276a3.134,3.134,0,0,0,1.666-1.453A.7.7,0,0,0,114.1,114.141Z" transform="translate(-98.117 -102.434)" fill="#33c41d"/>
  </g>
</svg>
