<svg id="_1" data-name="1" xmlns="http://www.w3.org/2000/svg" width="76" height="22.146" viewBox="0 0 76 22.146">
  <path id="Контур_112" data-name="Контур 112" d="M51.437,11.321c0-5.127,1.428-9.4,3.713-10.824h-37.7c-2.571-.285-4.57,3.418-5.141,7.976h-4L11.45,4.485A3.1,3.1,0,0,0,10.879.5a2.713,2.713,0,0,0-3.713.57L.6,9.612a2.614,2.614,0,0,0-.286,2.848,3,3,0,0,0,2.571,1.424h9.425c.571,4.558,2.571,7.976,4.856,7.976h37.7C52.865,20.437,51.437,16.164,51.437,11.321Z" fill="#286d74"/>
  <path id="Контур_113" data-name="Контур 113" d="M56.864,11.321c0-2.848,1.142-4.842,2.571-4.842h4C62,2.776,59.149.212,57.149.212c-2.856,0-5.141,4.842-5.141,10.824s2.285,11.109,5.141,11.109c2,0,4.855-2.279,6.284-5.982h-4C58.006,16.164,56.864,14.17,56.864,11.321Z" fill="#286d74"/>
  <path id="Контур_114" data-name="Контур 114" d="M73.715,6.764H59.434c-1.143,0-2.285,1.994-2.285,4.558s.857,4.558,2.285,4.558H73.715c1.142,0,2.285-1.994,2.285-4.558S74.857,6.764,73.715,6.764Zm0,8.261c-.571,0-1.428-1.424-1.428-3.7s.857-3.7,1.428-3.7,1.428,1.424,1.428,3.7S74.286,15.024,73.715,15.024Z" fill="#286d74"/>
</svg>
