<svg xmlns="http://www.w3.org/2000/svg" width="71.666" height="51.844" viewBox="0 0 71.666 51.844">
  <g id="_12" data-name="12" transform="translate(0 -0.423)">
    <path id="Контур_178" data-name="Контур 178" d="M13.221,32.859A7.831,7.831,0,1,0,21.07,40.69,7.845,7.845,0,0,0,13.221,32.859Zm1.353,2.16a.519.519,0,0,1,.812-.27.517.517,0,0,1,.271.81.581.581,0,0,1-.541.54h-.271A1.62,1.62,0,0,1,14.574,35.019ZM8.89,44.47H8.62c-.271,0-.541,0-.541-.27a.667.667,0,0,1,.271-1.08.67.67,0,0,1,1.083.27A2.045,2.045,0,0,1,8.89,44.47Zm.541-7.021c0,.27-.271.27-.541.27s-.271,0-.541-.27-.271-.54,0-1.08c.271-.27.541-.27,1.083,0Zm5.684,9.181c-.541,0-.812-.27-.812-.54s0-.81.541-.81c.271,0,.812,0,.812.54C15.657,46.09,15.386,46.63,15.115,46.63Zm-1.895-2.97A2.97,2.97,0,1,1,16.2,40.69,3,3,0,0,1,13.221,43.66Zm6.5-2.97a.812.812,0,0,1-1.624,0,.717.717,0,0,1,.812-.81A.863.863,0,0,1,19.717,40.69Z" transform="translate(-0.229 -1.384)" fill="#286d74"/>
    <path id="Контур_179" data-name="Контур 179" d="M3.531,36.1a9.5,9.5,0,0,1,8.932-5.941H13v-3.51h-.541a16.013,16.013,0,0,0-3.789.54,7.176,7.176,0,0,0-6.5,4.32,12.759,12.759,0,0,0-1.895,3.24Zm8.661-7.831a.27.27,0,1,1-.271.27C11.65,28.274,11.921,28.274,12.192,28.274Zm-9.473,5.94c.271,0,.271.27.271.54l-.271.27c-.271,0-.271-.27-.271-.54S2.448,34.214,2.719,34.214Z" transform="translate(-0.012 -1.119)" fill="#286d74"/>
    <path id="Контур_180" data-name="Контур 180" d="M13.533,27.5v2.97c.271,0,.271,0,.271.27v.27l-.271.27c-.271,0-.541,0-.541-.27v-.27H12.45a9,9,0,0,0-7.578,4.05c.271,0,.271,0,.271.27v.27c0,.27-.271.54-.541.27-.271,0-.271,0-.271-.27-.271.27-.271.81-.541,1.08l-.271.54L.541,35.6A24.164,24.164,0,0,0,0,40.461a12.992,12.992,0,0,0,25.983,0A12.869,12.869,0,0,0,13.533,27.5ZM1.083,40.191c-.271,0-.541,0-.541-.27s0-.54.271-.54.271,0,.541.27C1.353,39.921,1.353,40.191,1.083,40.191Zm.812,1.89c-.271,0-.541,0-.541-.27s0-.54.271-.54h.271c.271,0,.271,0,.271.27S2.165,41.811,1.895,42.081ZM3.248,43.7c-.271.27-.541.27-.541,0-.271-.27-.271-.54,0-.54h.271a.265.265,0,0,1,.271.27C3.519,43.161,3.519,43.431,3.248,43.7ZM19.217,30.2c0-.27.271-.27.541-.27s.271.27.271.54-.271.27-.541.27C19.217,30.47,18.946,30.2,19.217,30.2Zm-1.624-.81a.582.582,0,0,1,.541.54v.27l-.271.27a.581.581,0,0,1-.541-.54C17.052,29.66,17.322,29.39,17.593,29.39Zm-2.165.27c.271,0,.541,0,.541.27v.27l-.271.27c-.271,0-.541,0-.541-.27C14.886,29.93,15.157,29.66,15.428,29.66ZM4.872,45.051c0,.27-.271.27-.541,0-.271,0-.271-.27,0-.54l.271-.27h.271Zm2.165,5.67c0,.27-.271.27-.541.27s-.271-.27-.271-.54.271-.27.541-.27A.942.942,0,0,1,7.037,50.722Zm1.624.54a.581.581,0,0,1-.541-.54v-.27l.271-.27a.581.581,0,0,1,.541.54A.942.942,0,0,1,8.661,51.262Zm1.895-.27c-.271,0-.541,0-.541-.27v-.27l.271-.27c.541,0,.541,0,.812.27A.582.582,0,0,1,10.556,50.992Zm2.165-.81c-.271,0-.541,0-.541-.27v-.27l.271-.27c.271,0,.541,0,.541.27S12.992,50.182,12.721,50.182Zm6.225,1.08c-.271.27-.541.27-.541,0v-.54c.271-.27.541-.27.541,0Zm1.353-1.62c0,.27-.271.27-.541.27l-.271-.27V49.1c0-.27.271-.27.541-.27A.99.99,0,0,1,20.3,49.642Zm.812-1.89c0,.27-.271.27-.541.27a.265.265,0,0,1-.271-.27v-.27c0-.27.271-.27.541-.27S21.111,47.481,21.111,47.751Zm0-1.89c-.271,0-.271,0-.271-.27v-.27c0-.27.271-.54.541-.27.271,0,.541.27.271.54S21.382,46.131,21.111,45.861Zm-8.12,2.97a8.641,8.641,0,1,1,8.661-8.641A8.54,8.54,0,0,1,12.992,48.832Zm8.932-12.691-.271.27h-.271c-.271,0-.271-.27,0-.54,0-.27.271-.27.541,0C21.923,35.871,22.194,36.141,21.923,36.141Zm2.977,4.32c.271,0,.541,0,.541.27s0,.54-.271.54-.271,0-.541-.27C24.63,40.731,24.63,40.461,24.9,40.461Zm-.812-1.89c.271,0,.541,0,.541.27s0,.54-.271.54-.271,0-.271-.27C23.818,39.111,23.818,38.841,24.089,38.571Zm-1.353-1.62c.271-.27.541-.27.541,0,.271.27.271.54,0,.54h-.271a.265.265,0,0,1-.271-.27Z" transform="translate(0 -1.155)" fill="#286d74"/>
    <path id="Контур_181" data-name="Контур 181" d="M68.063,16.894l2.707-1.08a2.268,2.268,0,0,0,1.083-2.97,1.827,1.827,0,0,0-1.624-1.08,9.7,9.7,0,0,0-4.06-.54,2.3,2.3,0,0,0-1.353.81l-.541.81L61.567,6.9c-1.353-3.24-4.06-5.4-6.766-5.67a122.664,122.664,0,0,0-28.149,0c-2.977.27-5.413,2.43-6.766,5.67l-2.707,5.94-.541-.54a2.7,2.7,0,0,0-1.353-1.08,9.7,9.7,0,0,0-4.06.54A1.827,1.827,0,0,0,9.6,12.844a2.712,2.712,0,0,0,1.353,2.97l2.707,1.08A10.457,10.457,0,0,0,9.33,24.724a12.948,12.948,0,0,1,5.684-.27,2.573,2.573,0,0,1,2.707-1.62s8.12,1.08,8.932,3.51c.541,1.89-.541,3.51-2.165,3.51h-.271a14.009,14.009,0,0,1,3.519,9.451l6.225.27H47.493l9.473-.27v1.35c0,2.16,1.624,4.05,3.519,4.05h5.954c1.895,0,3.519-1.89,3.519-4.05v-5.13a36.6,36.6,0,0,0,1.895-8.911C72.393,22.294,70.77,18.784,68.063,16.894ZM41.268,15c-8.932,0-18.134.54-22.735.81l3.248-7.29a7.816,7.816,0,0,1,5.142-4.59,118.015,118.015,0,0,1,27.607,0,7.679,7.679,0,0,1,5.413,4.59l2.977,7.29A210.862,210.862,0,0,0,41.268,15ZM66.439,27.155l-.271.54a3.111,3.111,0,0,1-2.707,2.16h-6.5c-1.353,0-2.436-1.89-2.165-3.51.812-2.16,8.932-3.51,8.932-3.51C65.627,22.564,67.251,24.994,66.439,27.155Z" transform="translate(-0.398 0)" fill="#286d74"/>
  </g>
</svg>
