<svg id="_2" data-name="2" xmlns="http://www.w3.org/2000/svg" width="69.918" height="58" viewBox="0 0 69.918 58">
  <path id="Контур_106" data-name="Контур 106" d="M62.458,54.3h-3.71a4.736,4.736,0,0,1-3.092-1.234V29.617a2.657,2.657,0,0,0-2.474-2.468,2.275,2.275,0,0,0-1.855.617c-.618.617-1.237,1.234-1.237,1.851v4.936c0,1.234-1.237,2.468-3.092,3.085V29.617a2.474,2.474,0,0,0-4.947,0v7.4H38.959V29a2.474,2.474,0,0,0-4.947,0v8.021h-.618c-2.473,0-3.092-.617-2.473-5.553V28.383a2.657,2.657,0,0,0-2.474-2.468c-.618,0-1.237.617-1.855.617a2.264,2.264,0,0,0-.618,1.851v2.468a20.946,20.946,0,0,0,.618,6.17c.618,1.851,2.474,3.7,6.8,4.319H45.761a11.671,11.671,0,0,0,4.947-1.234V51.83c0,3.7,3.71,6.17,8.039,6.17H61.84a2.657,2.657,0,0,0,2.474-2.468C64.932,55.532,63.695,54.3,62.458,54.3Z" fill="#286d74"/>
  <path id="Контур_107" data-name="Контур 107" d="M56.274,14.191H21.025a8.177,8.177,0,0,0-8.039,8.021V49.979c0,3.7,3.71,6.787,8.039,6.787h4.947A14.875,14.875,0,0,0,38.34,49.979h9.276V44.425H32.157c-6.184-.617-8.658-3.7-9.276-6.17-1.237-2.468-.618-4.936-.618-7.4V29A8.756,8.756,0,0,1,23.5,25.3a5.349,5.349,0,0,1,3.71-1.851A5.619,5.619,0,0,1,31.538,25.3a5.987,5.987,0,0,1,8.658,0,5.987,5.987,0,0,1,8.657,0c.618,0,.618-.617,1.237-.617a4.729,4.729,0,0,1,3.092-1.234c3.092,0,5.566,2.468,5.566,4.936V49.362A13.926,13.926,0,0,0,69.879,35.787V27.766C70.5,20.362,63.695,14.191,56.274,14.191Z" fill="#286d74"/>
  <path id="Контур_108" data-name="Контур 108" d="M47.616,8.021H30.92v3.7h16.7Z" fill="#286d74"/>
  <path id="Контур_109" data-name="Контур 109" d="M24.117,6.17H53.8a2.918,2.918,0,0,0,3.092-3.085C57.511,1.234,55.656,0,54.419,0h-30.3a2.918,2.918,0,0,0-3.092,3.085A2.918,2.918,0,0,0,24.117,6.17Z" fill="#286d74"/>
  <path id="Контур_110" data-name="Контур 110" d="M1.237,19.745a1.155,1.155,0,0,0,0,1.851,3.2,3.2,0,0,1,1.237,2.468V46.277a4.708,4.708,0,0,1-1.237,3.085C0,49.979,0,50.6,0,51.213s.618.617,1.237.617h.618a5.608,5.608,0,0,0,2.474-4.936V24.681a5.6,5.6,0,0,0-1.855-4.319C2.474,19.128,1.855,19.128,1.237,19.745Z" fill="#286d74"/>
  <path id="Контур_111" data-name="Контур 111" d="M7.421,41.957l3.71,1.234V28.383L7.421,29Z" fill="#286d74"/>
</svg>
