<svg id="car-repair" xmlns="http://www.w3.org/2000/svg" width="36.899" height="36.093" viewBox="0 0 36.899 36.093">
  <g id="Сгруппировать_40" data-name="Сгруппировать 40" transform="translate(3.965 17.95)">
    <g id="Сгруппировать_39" data-name="Сгруппировать 39">
      <path id="Контур_31" data-name="Контур 31" d="M46.239,180.05h-6.32a1.022,1.022,0,0,0-1.019,1.019v4.383a1.022,1.022,0,0,0,1.019,1.019h6.32a1.022,1.022,0,0,0,1.019-1.019v-4.383A1.022,1.022,0,0,0,46.239,180.05Zm-1.019,4.383H40.939v-2.344H45.22Z" transform="translate(-38.9 -180.05)" fill="#286d74"/>
    </g>
  </g>
  <g id="Сгруппировать_42" data-name="Сгруппировать 42">
    <g id="Сгруппировать_41" data-name="Сгруппировать 41" transform="translate(0 0)">
      <path id="Контур_32" data-name="Контур 32" d="M35.951,19.341l-2.171-.2a11.406,11.406,0,0,0-1.07-2.518l1.376-1.651a1.017,1.017,0,0,0-.061-1.366l-2.711-2.742a1.02,1.02,0,0,0-1.376-.071l-1.661,1.376a11.715,11.715,0,0,0-2.5-1.06l-.2-2.161a1.017,1.017,0,0,0-1.009-.917H21.1V4.969a1.019,1.019,0,1,0-2.039,0V6.8H8.888A3.726,3.726,0,0,0,5.423,9.23L2.365,17.486c0,.01-.01.031-.01.041l-.764.714A5.029,5.029,0,0,0,0,21.9V34.07a3.681,3.681,0,0,0,3.731,3.639H5.953A3.687,3.687,0,0,0,9.683,34.07V32.5h9.378v6.523a1.019,1.019,0,0,0,2.039,0V36.578h3.466a1.02,1.02,0,0,0,1.019-.928l.2-2.171a11.762,11.762,0,0,0,2.507-1.05l1.661,1.376a1.017,1.017,0,0,0,1.366-.061L34.065,31a1.03,1.03,0,0,0,.061-1.376L32.75,27.965a11.939,11.939,0,0,0,1.06-2.5l2.151-.2a1.037,1.037,0,0,0,.938-1.019V20.35A1.061,1.061,0,0,0,35.951,19.341ZM7.635,34.06a1.644,1.644,0,0,1-1.692,1.6H3.72a1.65,1.65,0,0,1-1.692-1.6V32.144A3.884,3.884,0,0,0,3.72,32.5H7.635ZM19.051,22.817H15.86a1.019,1.019,0,0,0,0,2.039h3.19v.51H15.86a1.019,1.019,0,1,0,0,2.039h3.19v3.058H3.72a1.66,1.66,0,0,1-1.692-1.621V21.89a3.042,3.042,0,0,1,.958-2.181l.917-.866H19.051v3.975ZM8.44,16.8a3.92,3.92,0,0,1,7.573,0Zm10.611,0H18.1a5.964,5.964,0,0,0-11.752,0H4.78l2.548-6.87a1.651,1.651,0,0,1,1.549-1.08H19.051ZM21.089,18a4.562,4.562,0,1,1,0,8.6Zm13.76,5.321h0L32.9,23.5a1.042,1.042,0,0,0-.907.8,9.661,9.661,0,0,1-1.356,3.2,1.011,1.011,0,0,0,.071,1.2l1.244,1.509-1.427,1.427-1.509-1.244a1.011,1.011,0,0,0-1.213-.061,9.3,9.3,0,0,1-3.19,1.345,1.007,1.007,0,0,0-.8.9l-.183,1.957H21.089v-5.82a6.593,6.593,0,1,0,0-12.833v-5.8h2.538l.194,1.947a1.019,1.019,0,0,0,.8.9,9.856,9.856,0,0,1,3.2,1.345,1.011,1.011,0,0,0,1.2-.071l1.5-1.244,1.407,1.417-1.254,1.519a1.01,1.01,0,0,0-.061,1.213,9.3,9.3,0,0,1,1.345,3.19,1.03,1.03,0,0,0,.917.8l1.977.183v2.049Z" transform="translate(0 -3.95)" fill="#286d74"/>
    </g>
  </g>
</svg>
