<svg id="money" xmlns="http://www.w3.org/2000/svg" width="36.015" height="36.015" viewBox="0 0 36.015 36.015">
  <path id="Контур_33" data-name="Контур 33" d="M30.726,5.289A17.987,17.987,0,1,0,5.289,30.726,17.987,17.987,0,1,0,30.726,5.289ZM18.008,33.9a15.9,15.9,0,1,1,15.9-15.9A15.915,15.915,0,0,1,18.008,33.9Z" fill="#286d74"/>
  <path id="Контур_34" data-name="Контур 34" d="M74.717,61A13.717,13.717,0,1,0,88.433,74.717,13.732,13.732,0,0,0,74.717,61Zm0,25.323A11.606,11.606,0,1,1,86.323,74.717,11.62,11.62,0,0,1,74.717,86.323Z" transform="translate(-56.709 -56.709)" fill="#286d74"/>
  <path id="Контур_35" data-name="Контур 35" d="M189.441,127.178a1.055,1.055,0,1,0,2.11,0,3.892,3.892,0,0,0-1.658-3.082,5.8,5.8,0,0,0-2.562-1.054V121.9a1.055,1.055,0,0,0-2.11,0v1.139a5.8,5.8,0,0,0-2.562,1.054,3.694,3.694,0,0,0,0,6.165,5.8,5.8,0,0,0,2.562,1.054v4.179c-1.215-.3-2.11-1.086-2.11-1.984a1.055,1.055,0,0,0-2.11,0,3.892,3.892,0,0,0,1.658,3.082,5.8,5.8,0,0,0,2.562,1.054v1.15a1.055,1.055,0,1,0,2.11,0v-1.15a5.8,5.8,0,0,0,2.562-1.054,3.694,3.694,0,0,0,0-6.165,5.8,5.8,0,0,0-2.562-1.054v-4.179C188.546,125.491,189.441,126.279,189.441,127.178Zm-6.331,0c0-.9.895-1.687,2.11-1.984v3.969C184.005,128.865,183.11,128.076,183.11,127.178Zm6.331,6.331c0,.9-.895,1.687-2.11,1.984v-3.969C188.546,131.821,189.441,132.61,189.441,133.509Z" transform="translate(-168.268 -112.346)" fill="#286d74"/>
</svg>
