<svg xmlns="http://www.w3.org/2000/svg" width="34.594" height="33" viewBox="0 0 34.594 33">
  <path id="Контур_36" data-name="Контур 36" d="M34.544,24.327a1.013,1.013,0,0,0-.818-.69L23,22.079l-4.8-9.718a1.013,1.013,0,0,0-1.818,0l-4.8,9.718L.868,23.637a1.013,1.013,0,0,0-.562,1.729l7.76,7.564L6.235,43.611A1.013,1.013,0,0,0,7.7,44.68L17.3,39.637l9.592,5.043a1.014,1.014,0,0,0,1.471-1.068L26.527,32.93l7.761-7.564A1.013,1.013,0,0,0,34.544,24.327Z" transform="translate(0 -11.796)" fill="#286d74"/>
</svg>
