<svg xmlns="http://www.w3.org/2000/svg" width="15" height="14.999" viewBox="0 0 15 14.999">
  <path id="pen" d="M13.276.574a2.066,2.066,0,0,0-2.919,0l-.731.735L1.85,9.082,1.833,9.1s0,.008-.008.008-.021.025-.029.037,0,0,0,.008-.012.021-.021.033,0,.008-.008.012-.008.021-.013.033,0,0,0,.008L.021,14.428a.406.406,0,0,0,.1.421.415.415,0,0,0,.293.12.487.487,0,0,0,.132-.021l5.185-1.73s0,0,.008,0a.15.15,0,0,0,.037-.017.015.015,0,0,0,.008,0l.041-.025c.012-.008.025-.021.037-.029s.008,0,.008-.008.013-.008.017-.017L14.4,4.608a2.066,2.066,0,0,0,0-2.919ZM5.6,12.249,2.725,9.376,9.916,2.184l2.873,2.873ZM2.32,10.139l2.51,2.51L1.061,13.9ZM13.813,4.03l-.438.442L10.5,1.6l.442-.442a1.238,1.238,0,0,1,1.75,0l1.123,1.123a1.242,1.242,0,0,1,0,1.75Zm0,0" transform="translate(0.001 0.029)" fill="#f2ece8"/>
</svg>
