<svg xmlns="http://www.w3.org/2000/svg" width="11.933" height="11.933" viewBox="0 0 11.933 11.933">
  <g id="elink" transform="translate(-0.003)">
    <path id="Контур_157" data-name="Контур 157" d="M11.28.656A2.155,2.155,0,0,0,9.7,0H2.24A2.155,2.155,0,0,0,.659.656,2.155,2.155,0,0,0,0,2.237V9.7a2.156,2.156,0,0,0,.656,1.581,2.155,2.155,0,0,0,1.581.657H9.7A2.241,2.241,0,0,0,11.936,9.7V2.237A2.156,2.156,0,0,0,11.28.656ZM9.947,6.215a.465.465,0,0,1-.3.458.541.541,0,0,1-.194.039.462.462,0,0,1-.35-.148L7.982,5.446,3.833,9.595a.488.488,0,0,1-.7,0L2.342,8.8a.488.488,0,0,1,0-.7L6.49,3.954,5.372,2.836a.448.448,0,0,1-.109-.544.465.465,0,0,1,.458-.3H9.45a.5.5,0,0,1,.5.5V6.215Z" fill="#286d74" opacity="0.77"/>
  </g>
</svg>
