<svg xmlns="http://www.w3.org/2000/svg" width="96.113" height="94.325" viewBox="0 0 96.113 94.325">
  <g id="cert" transform="translate(0 0)">
    <g id="Сгруппировать_119" data-name="Сгруппировать 119" transform="translate(0 0)">
      <g id="Сгруппировать_118" data-name="Сгруппировать 118" transform="translate(0 0)">
        <path id="Контур_135" data-name="Контур 135" d="M94.511,4.465H1.6A1.6,1.6,0,0,0,0,6.067V70.142a1.6,1.6,0,0,0,1.6,1.6H30.527c.048.533.127,1.059.221,1.579L21.962,83.8a1.6,1.6,0,0,0,.855,2.589l9.672,2.31,3.955,9.131a1.6,1.6,0,0,0,2.7.392l8.772-10.454H48.2l8.772,10.454a1.6,1.6,0,0,0,2.7-.392l3.955-9.131,9.672-2.31a1.6,1.6,0,0,0,.855-2.589L65.365,73.324c.095-.521.173-1.046.221-1.579H94.511a1.6,1.6,0,0,0,1.6-1.6V6.067A1.6,1.6,0,0,0,94.511,4.465ZM38.354,94.171,35.11,86.69a1.6,1.6,0,0,0-1.1-.921l-7.929-1.9,5.751-6.854c.03.07.07.135.1.205.208.481.434.937.684,1.39.1.189.211.375.32.559q.33.549.7,1.076c.171.245.351.481.535.721.215.272.436.538.668.8s.5.553.771.819c.2.2.4.388.609.575.173.16.328.328.509.481s.351.255.524.389c.078.061.146.131.226.191.144.109.3.2.444.308.231.16.458.333.7.481.455.292.924.557,1.4.8.183.093.368.178.554.264q.641.3,1.29.548c.125.046.248.1.373.143a17.239,17.239,0,0,0,1.852.537l.018,0ZM51.065,84.22a14.518,14.518,0,0,1-2.23.293h-.021c-.253.013-.506.03-.761.03s-.508-.018-.761-.03h-.021a14.63,14.63,0,0,1-2.225-.292l-.135-.027c-.285-.062-.567-.139-.846-.219-.117-.034-.235-.064-.351-.1-.2-.062-.4-.136-.594-.207s-.384-.139-.573-.218c-.117-.05-.232-.1-.348-.16-.263-.119-.524-.239-.779-.372l-.128-.07a14.5,14.5,0,0,1-1.89-1.208c-.333-.248-.641-.522-.944-.793a14.173,14.173,0,0,1-1.024-1.011c-.128-.138-.266-.269-.388-.412a14.064,14.064,0,0,1-1.221-1.671c-.054-.087-.1-.178-.16-.268a14.019,14.019,0,0,1-.9-1.773c-.022-.054-.048-.109-.069-.16a14.4,14.4,0,0,1-.682-2.159c0-.029-.022-.051-.03-.08a14.42,14.42,0,1,1,28.126.017c-.008.027-.024.051-.03.078a14.463,14.463,0,0,1-.681,2.158c-.022.056-.048.112-.072.16a13.95,13.95,0,0,1-.894,1.762c-.053.09-.1.184-.16.274a14.2,14.2,0,0,1-1.219,1.669c-.12.141-.256.269-.383.407a14.53,14.53,0,0,1-1.036,1.02c-.3.271-.607.545-.939.791s-.628.455-.952.662l-.019.011c-.29.184-.586.354-.887.514-.059.032-.117.066-.176.1-.242.127-.481.24-.735.351-.128.058-.255.117-.384.17-.179.075-.362.141-.545.207s-.408.151-.617.215c-.111.035-.223.066-.335.1-.284.08-.569.16-.857.221Zm18.965-.351-7.929,1.9a1.6,1.6,0,0,0-1.1.921l-3.244,7.486-5.752-6.854h.014a16.867,16.867,0,0,0,1.858-.538c.12-.042.235-.091.356-.135.447-.17.887-.356,1.32-.562.176-.082.352-.16.525-.25.481-.25.961-.521,1.422-.817.223-.141.436-.3.652-.452.16-.111.32-.211.481-.328.085-.064.16-.139.243-.205.16-.131.346-.242.509-.38s.33-.32.5-.471c.211-.192.42-.386.622-.586q.4-.4.766-.814c.232-.263.453-.529.67-.8.184-.235.364-.481.535-.721.247-.349.481-.708.7-1.073.112-.186.221-.373.32-.564q.373-.678.681-1.386c.029-.082.07-.147.1-.219ZM92.91,68.541H65.6a17.611,17.611,0,0,0-35.081,0H3.2V7.669H92.91Z" transform="translate(0 -4.465)" fill="#286d74"/>
      </g>
    </g>
    <g id="Сгруппировать_121" data-name="Сгруппировать 121" transform="translate(6.408 6.408)">
      <g id="Сгруппировать_120" data-name="Сгруппировать 120">
        <path id="Контур_136" data-name="Контур 136" d="M33.6,36.465a1.6,1.6,0,0,0-1.6,1.6v6.408h3.2V39.669h4.806v-3.2Z" transform="translate(-32 -36.465)" fill="#286d74"/>
      </g>
    </g>
    <g id="Сгруппировать_123" data-name="Сгруппировать 123" transform="translate(81.696 6.408)">
      <g id="Сгруппировать_122" data-name="Сгруппировать 122" transform="translate(0 0)">
        <path id="Контур_137" data-name="Контур 137" d="M414.408,36.465H408v3.2h4.806v4.806h3.2V38.067A1.6,1.6,0,0,0,414.408,36.465Z" transform="translate(-408 -36.465)" fill="#286d74"/>
      </g>
    </g>
    <g id="Сгруппировать_125" data-name="Сгруппировать 125" transform="translate(81.696 52.862)">
      <g id="Сгруппировать_124" data-name="Сгруппировать 124">
        <path id="Контур_138" data-name="Контур 138" d="M412.806,268.465v4.806H408v3.2h6.408a1.6,1.6,0,0,0,1.6-1.6v-6.408Z" transform="translate(-408 -268.465)" fill="#286d74"/>
      </g>
    </g>
    <g id="Сгруппировать_127" data-name="Сгруппировать 127" transform="translate(6.408 52.862)">
      <g id="Сгруппировать_126" data-name="Сгруппировать 126">
        <path id="Контур_139" data-name="Контур 139" d="M35.2,273.271v-4.806H32v6.408a1.6,1.6,0,0,0,1.6,1.6h6.408v-3.2Z" transform="translate(-32 -268.465)" fill="#286d74"/>
      </g>
    </g>
    <g id="Сгруппировать_129" data-name="Сгруппировать 129" transform="translate(28.752 17.869)">
      <g id="Сгруппировать_128" data-name="Сгруппировать 128" transform="translate(0 0)">
        <rect id="Прямоугольник_46" data-name="Прямоугольник 46" width="38" height="3" transform="translate(0.248 -0.073)" fill="#286d74"/>
      </g>
    </g>
    <g id="Сгруппировать_131" data-name="Сгруппировать 131" transform="translate(18.894 26.906)">
      <g id="Сгруппировать_130" data-name="Сгруппировать 130" transform="translate(0 0)">
        <rect id="Прямоугольник_47" data-name="Прямоугольник 47" width="58" height="3" transform="translate(0.106 -0.109)" fill="#286d74"/>
      </g>
    </g>
    <g id="Сгруппировать_133" data-name="Сгруппировать 133" transform="translate(36.843 54.464)">
      <g id="Сгруппировать_132" data-name="Сгруппировать 132">
        <path id="Контур_140" data-name="Контур 140" d="M195.213,276.465a11.213,11.213,0,1,0,11.213,11.213A11.213,11.213,0,0,0,195.213,276.465Zm0,19.223a8.009,8.009,0,1,1,8.009-8.009A8.01,8.01,0,0,1,195.213,295.688Z" transform="translate(-184 -276.465)" fill="#286d74"/>
      </g>
    </g>
  </g>
</svg>
