<svg id="clock" xmlns="http://www.w3.org/2000/svg" width="95.169" height="95.169" viewBox="0 0 95.169 95.169">
  <g id="Сгруппировать_137" data-name="Сгруппировать 137">
    <path id="Контур_150" data-name="Контур 150" d="M47.585,0A47.585,47.585,0,1,0,95.169,47.585,47.638,47.638,0,0,0,47.585,0Zm0,84.768A37.184,37.184,0,1,1,84.768,47.585,37.225,37.225,0,0,1,47.585,84.768Z" fill="#286d74"/>
    <path id="Контур_151" data-name="Контур 151" d="M264.851,163.23V143.286a4.031,4.031,0,1,0-8.062,0v21.232c0,.063.016.123.019.186a4.007,4.007,0,0,0,1.162,3.047l15.014,15.013a4.031,4.031,0,0,0,5.7-5.7Z" transform="translate(-213.147 -115.588)" fill="#286d74"/>
  </g>
</svg>
