<svg xmlns="http://www.w3.org/2000/svg" width="95.753" height="95.753" viewBox="0 0 95.753 95.753">
  <g id="gear" transform="translate(0 0)">
    <g id="Сгруппировать_138" data-name="Сгруппировать 138" transform="translate(0 0)">
      <path id="Контур_152" data-name="Контур 152" d="M59.1,95.753H36.649V88.627a41.845,41.845,0,0,1-9.647-4l-5.039,5.039L6.084,73.791l5.039-5.039a41.861,41.861,0,0,1-4-9.647H0V36.649H7.126a41.845,41.845,0,0,1,4-9.647L6.084,21.962,21.962,6.083,27,11.123a41.861,41.861,0,0,1,9.647-4V0H59.1V7.126a41.845,41.845,0,0,1,9.647,4l5.039-5.039L89.67,21.962,84.63,27a41.861,41.861,0,0,1,4,9.647h7.126V59.1H88.627a41.844,41.844,0,0,1-4,9.647l5.039,5.039L73.791,89.67,68.751,84.63a41.861,41.861,0,0,1-9.647,4v7.126ZM42.259,90.142H53.494V84.168l2.209-.48a36.334,36.334,0,0,0,11.961-4.955l1.9-1.222,4.225,4.225,7.944-7.944L77.51,69.566l1.222-1.9A36.325,36.325,0,0,0,83.688,55.7l.48-2.209h5.974V42.259H84.168l-.48-2.209a36.334,36.334,0,0,0-4.955-11.961l-1.222-1.9,4.225-4.225-7.944-7.944-4.225,4.225-1.9-1.222A36.325,36.325,0,0,0,55.7,12.065l-2.209-.48V5.611H42.259v5.975l-2.209.48a36.334,36.334,0,0,0-11.961,4.955l-1.9,1.222-4.225-4.225-7.944,7.944,4.225,4.225-1.222,1.9A36.324,36.324,0,0,0,12.065,40.05l-.48,2.209H5.611V53.494h5.975l.48,2.209a36.334,36.334,0,0,0,4.955,11.961l1.222,1.9-4.225,4.225,7.944,7.944,4.225-4.225,1.9,1.222A36.325,36.325,0,0,0,40.05,83.688l2.209.48v5.974Z" transform="translate(0 0)" fill="#286d74"/>
    </g>
    <g id="Сгруппировать_139" data-name="Сгруппировать 139" transform="translate(38.52 38.52)">
      <path id="Контур_153" data-name="Контур 153" d="M215.328,224.684a9.356,9.356,0,1,1,9.356-9.356A9.367,9.367,0,0,1,215.328,224.684Zm0-13.1a3.746,3.746,0,1,0,3.746,3.746A3.75,3.75,0,0,0,215.328,211.583Z" transform="translate(-205.972 -205.972)" fill="#286d74"/>
    </g>
    <g id="Сгруппировать_140" data-name="Сгруппировать 140" transform="translate(27.299 27.299)">
      <path id="Контур_154" data-name="Контур 154" d="M166.549,187.126a20.577,20.577,0,1,1,20.577-20.577A20.6,20.6,0,0,1,166.549,187.126Zm0-35.544a14.967,14.967,0,1,0,14.967,14.967,14.983,14.983,0,0,0-14.967-14.967Z" transform="translate(-145.972 -145.972)" fill="#286d74"/>
    </g>
  </g>
</svg>
