<svg xmlns="http://www.w3.org/2000/svg" width="96" height="107" viewBox="0 0 96 107">
  <g id="Сгруппировать_159" data-name="Сгруппировать 159" transform="translate(7 1.62)">
    <rect id="Прямоугольник_69" data-name="Прямоугольник 69" width="96" height="107" transform="translate(-7 -1.62)" fill="none"/>
    <g id="secure-shield" transform="translate(0 6.571)">
      <g id="Сгруппировать_136" data-name="Сгруппировать 136" transform="translate(0 0)">
        <g id="Сгруппировать_135" data-name="Сгруппировать 135">
          <path id="Контур_144" data-name="Контур 144" d="M118.139,16.592A159.838,159.838,0,0,1,79.682.281a2.02,2.02,0,0,0-2.055,0A155.461,155.461,0,0,1,39.168,16.592a2.021,2.021,0,0,0-1.487,1.95V39.194A59.415,59.415,0,0,0,55.723,82.6c8.861,8.683,19.183,13.484,22.931,13.484s14.069-4.8,22.93-13.484a59.415,59.415,0,0,0,18.042-43.41V18.541A2.021,2.021,0,0,0,118.139,16.592Zm-2.555,22.6A55.452,55.452,0,0,1,98.755,79.716c-8.714,8.538-18.03,12.329-20.1,12.329s-11.388-3.791-20.1-12.329A55.453,55.453,0,0,1,41.724,39.194V20.076A159.186,159.186,0,0,0,78.654,4.363a164.224,164.224,0,0,0,36.929,15.712Z" transform="translate(-37.681 0)" fill="#286d74"/>
          <path id="Контур_145" data-name="Контур 145" d="M95.38,100.224a2.021,2.021,0,0,0-2.622-1.14c-3.611,1.423-7.317,2.732-11.015,3.893a2.021,2.021,0,0,0-1.416,1.929v7.806a2.021,2.021,0,0,0,4.042,0v-6.328c3.318-1.073,6.632-2.261,9.871-3.537A2.021,2.021,0,0,0,95.38,100.224Z" transform="translate(-72.324 -80.374)" fill="#286d74"/>
          <path id="Контур_146" data-name="Контур 146" d="M172.228,90.26a2.022,2.022,0,0,0,.811-.17l.037-.016a2.021,2.021,0,1,0-1.632-3.7l-.033.014a2.02,2.02,0,0,0,.817,3.87Z" transform="translate(-145.332 -70.027)" fill="#286d74"/>
          <path id="Контур_147" data-name="Контур 147" d="M318.531,345.857a2.022,2.022,0,0,0-2.8.586,49.2,49.2,0,0,1-5.809,7.255,51.632,51.632,0,0,1-5.8,5.158,2.021,2.021,0,1,0,2.451,3.215,55.715,55.715,0,0,0,6.253-5.563,53.187,53.187,0,0,0,6.287-7.854A2.021,2.021,0,0,0,318.531,345.857Z" transform="translate(-253.475 -280.682)" fill="#286d74"/>
          <path id="Контур_148" data-name="Контур 148" d="M277.688,432.243l-.116.068a2.021,2.021,0,1,0,2.025,3.5l.134-.079a2.021,2.021,0,1,0-2.043-3.488Z" transform="translate(-231.732 -350.898)" fill="#286d74"/>
          <path id="Контур_149" data-name="Контур 149" d="M134.038,169.5a6.573,6.573,0,1,0-9.3,9.3l11.935,11.935a6.574,6.574,0,0,0,9.3,0l24.916-24.916a6.573,6.573,0,0,0-9.3-9.295l-20.268,20.268Zm30.414-10.122a2.53,2.53,0,1,1,3.578,3.578l-24.915,24.915a2.532,2.532,0,0,1-3.579,0L127.6,175.941a2.53,2.53,0,0,1,3.578-3.579l8.716,8.717a2.021,2.021,0,0,0,2.858,0Z" transform="translate(-106.843 -125.585)" fill="#286d74"/>
        </g>
      </g>
    </g>
  </g>
</svg>
