<svg id="_13" data-name="13" xmlns="http://www.w3.org/2000/svg" width="37.672" height="19.319" viewBox="0 0 37.672 19.319">
  <path id="Контур_46" data-name="Контур 46" d="M6.088,11.829a2.748,2.748,0,0,0-2.912-2L1.9,10.193A2.362,2.362,0,0,0,.081,13.1L1.9,22.368a2.523,2.523,0,0,0,2.912,2l1.274-.182a2.362,2.362,0,0,0,1.82-2.907Zm-.182,10.9-1.274.182a1.166,1.166,0,0,1-1.456-1.09l-1.82-9.267c-.364-.545.182-1.09.728-1.272L3.357,11.1a1.166,1.166,0,0,1,1.456,1.09l1.82,9.267A.874.874,0,0,1,5.906,22.731Z" transform="translate(0 -5.07)" fill="#99c4c8"/>
  <path id="Контур_47" data-name="Контур 47" d="M37.984,12.739H29.428A2.9,2.9,0,0,0,28.154,11.1L27.062,7.288A3.8,3.8,0,0,0,27.79,6.2h4l.364-1.272H27.79a1.592,1.592,0,0,0-1.638-1.09,1.844,1.844,0,0,0-1.638,1.09H20.327V6.2h4a1.815,1.815,0,0,0,.728.909l-1.092,3.816a3.958,3.958,0,0,0-1.274,1.635H14.866l.546,2.726h7.281a3.771,3.771,0,0,0,3.277,2.362,3.332,3.332,0,0,0,3.276-2.362h7.827Z" transform="translate(-7.686 -1.983)" fill="#99c4c8"/>
  <path id="Контур_48" data-name="Контур 48" d="M67.1,10.132,65.83,9.768a2.451,2.451,0,0,0-2.912,1.817l-2.548,9.085a2.527,2.527,0,0,0,1.638,3.089l1.274.363a2.451,2.451,0,0,0,2.912-1.817l2.548-9.085A2.527,2.527,0,0,0,67.1,10.132Zm.728,2.907-2.548,9.085a1.3,1.3,0,0,1-1.638.909l-1.274-.363a1.3,1.3,0,0,1-.91-1.635l2.548-9.085a1.3,1.3,0,0,1,1.638-.909l1.274.363A1.462,1.462,0,0,1,67.832,13.039Z" transform="translate(-31.164 -5.009)" fill="#99c4c8"/>
  <path id="Контур_49" data-name="Контур 49" d="M20.078.035H19.35c-.728,0-1.092.727-1.092,1.454L18.8,6.213A1.089,1.089,0,0,0,20.078,7.3h.728c.728,0,1.092-.727,1.092-1.454l-.546-4.724A1.024,1.024,0,0,0,20.078.035Zm.728,6.541h-.728c-.182.182-.546-.182-.546-.545l-.546-4.724C18.8.944,19.168.58,19.532.58h.728a.581.581,0,0,1,.546.545l.546,4.724C21.535,6.213,21.17,6.577,20.806,6.577Z" transform="translate(-9.44)" fill="#99c4c8"/>
  <path id="Контур_50" data-name="Контур 50" d="M50.073,7.3l.728.182a1.125,1.125,0,0,0,1.456-.909l1.274-4.543c.182-.727-.182-1.454-.91-1.454L51.893.4a1.125,1.125,0,0,0-1.456.909L49.163,5.851A1.618,1.618,0,0,0,50.073,7.3Zm-.182-1.454,1.274-4.543a.975.975,0,0,1,.728-.545l.728.182a.663.663,0,0,1,.364.909L51.711,6.4a.975.975,0,0,1-.728.545l-.728-.182A.663.663,0,0,1,49.891,5.851Z" transform="translate(-25.418 -0.183)" fill="#99c4c8"/>
</svg>
