<svg id="_2" data-name="2" xmlns="http://www.w3.org/2000/svg" width="37.427" height="31.047" viewBox="0 0 37.427 31.047">
  <path id="Контур_37" data-name="Контур 37" d="M45.5,41.108H43.517a2.535,2.535,0,0,1-1.655-.661V27.9a1.422,1.422,0,0,0-1.324-1.321,1.218,1.218,0,0,0-.993.33c-.331.33-.662.661-.662.991v2.642c0,.661-.662,1.321-1.655,1.651V27.9a1.324,1.324,0,0,0-2.648,0V31.86H32.924V27.566a1.324,1.324,0,0,0-2.648,0V31.86h-.331c-1.324,0-1.655-.33-1.324-2.973V27.236A1.422,1.422,0,0,0,27.3,25.915c-.331,0-.662.33-.993.33a1.212,1.212,0,0,0-.331.991v1.321a11.212,11.212,0,0,0,.331,3.3c.331.991,1.324,1.982,3.641,2.312h6.621a6.247,6.247,0,0,0,2.648-.661v6.276c0,1.982,1.986,3.3,4.3,3.3h1.655A1.422,1.422,0,0,0,46.5,41.769C46.827,41.769,46.165,41.108,45.5,41.108Z" transform="translate(-12.07 -12.043)" fill="#99c4c8"/>
  <path id="Контур_38" data-name="Контур 38" d="M36.158,14.191H17.29a4.377,4.377,0,0,0-4.3,4.294V33.348c0,1.982,1.986,3.633,4.3,3.633h2.648a7.962,7.962,0,0,0,6.621-3.633h4.965V30.376H23.248c-3.31-.33-4.634-1.982-4.965-3.3-.662-1.321-.331-2.642-.331-3.963v-.991a4.687,4.687,0,0,1,.662-1.982,2.864,2.864,0,0,1,1.986-.991,3.008,3.008,0,0,1,2.317.991,3.2,3.2,0,0,1,4.634,0,3.2,3.2,0,0,1,4.634,0c.331,0,.331-.33.662-.33a2.532,2.532,0,0,1,1.655-.661,2.916,2.916,0,0,1,2.979,2.642v11.23a7.455,7.455,0,0,0,5.959-7.266V21.458C43.772,17.494,40.13,14.191,36.158,14.191Z" transform="translate(-6.035 -6.595)" fill="#99c4c8"/>
  <path id="Контур_39" data-name="Контур 39" d="M39.857,8.021H30.92V10h8.938Z" transform="translate(-14.368 -3.727)" fill="#99c4c8"/>
  <path id="Контур_40" data-name="Контур 40" d="M22.681,3.3H38.57a1.562,1.562,0,0,0,1.655-1.651C40.556.661,39.563,0,38.9,0H22.681a1.562,1.562,0,0,0-1.655,1.651A1.562,1.562,0,0,0,22.681,3.3Z" transform="translate(-9.771)" fill="#99c4c8"/>
  <path id="Контур_41" data-name="Контур 41" d="M.662,19.556a.618.618,0,0,0,0,.991,1.715,1.715,0,0,1,.662,1.321v11.89A2.52,2.52,0,0,1,.662,35.41C0,35.741,0,36.071,0,36.4s.331.33.662.33H.993a3,3,0,0,0,1.324-2.642V22.2a3,3,0,0,0-.993-2.312C1.324,19.226.993,19.226.662,19.556Z" transform="translate(0 -8.987)" fill="#99c4c8"/>
  <path id="Контур_42" data-name="Контур 42" d="M7.421,35.649l1.986.661V28.383l-1.986.33Z" transform="translate(-3.448 -13.19)" fill="#99c4c8"/>
</svg>
