<svg id="_6" data-name="6" xmlns="http://www.w3.org/2000/svg" width="37.672" height="42.97" viewBox="0 0 37.672 42.97">
  <path id="Контур_43" data-name="Контур 43" d="M37.344,7.025H28.738a5.4,5.4,0,0,0-5.359,5.351V39.13a5.4,5.4,0,0,0,5.359,5.351h8.606A5.4,5.4,0,0,0,42.7,39.13V12.376A5.4,5.4,0,0,0,37.344,7.025ZM29.225,42.536c-.162.162-.162.162-.325.162s-.162,0-.325-.162l-2.923-2.919a.459.459,0,1,1,.65-.649l2.923,2.919A.493.493,0,0,1,29.225,42.536Zm0-4.054c-.162.162-.162.162-.325.162s-.162,0-.325-.162l-2.923-2.919a.459.459,0,0,1,.65-.649l2.923,2.919A.493.493,0,0,1,29.225,38.482Zm0-4.054c-.162.162-.162.162-.325.162s-.162,0-.325-.162l-2.923-2.919a.459.459,0,0,1,.65-.649l2.923,2.919A.493.493,0,0,1,29.225,34.428Zm0-4.216c-.162.162-.162.162-.325.162s-.162,0-.325-.162l-2.923-2.919a.459.459,0,0,1,.65-.649l2.923,2.919C29.387,29.888,29.387,30.05,29.225,30.212Zm0-4.054c-.162.162-.162.162-.325.162s-.162,0-.325-.162L25.653,23.24a.459.459,0,1,1,.65-.649l2.923,2.919A.493.493,0,0,1,29.225,26.158Zm0-4.054c-.162.162-.162.162-.325.162s-.162,0-.325-.162l-2.923-2.919a.459.459,0,0,1,.65-.649l2.923,2.919A.493.493,0,0,1,29.225,22.1Zm0-4.054c-.162.162-.162.162-.325.162s-.162,0-.325-.162l-2.923-2.919a.459.459,0,1,1,.65-.649L29.225,17.4A.493.493,0,0,1,29.225,18.051Zm0-4.216C29.063,14,29.063,14,28.9,14s-.162,0-.325-.162l-2.923-2.919a.459.459,0,1,1,.65-.649l2.923,2.919C29.387,13.511,29.387,13.673,29.225,13.835Zm2.923,28.376a.487.487,0,0,1-.974,0V9.295a.487.487,0,0,1,.974,0Zm2.761,0a.487.487,0,0,1-.974,0V9.295a.487.487,0,0,1,.974,0Zm5.683-2.594-3.085,2.919c-.162.162-.162.162-.325.162s-.162,0-.325-.162a.493.493,0,0,1,0-.649l2.923-2.919a.494.494,0,0,1,.649,0A.4.4,0,0,1,40.592,39.617Zm0-4.216-3.085,3.081c-.162.162-.162.162-.325.162s-.162,0-.325-.162a.493.493,0,0,1,0-.649l2.923-2.919a.494.494,0,0,1,.649,0C40.754,35.077,40.754,35.239,40.592,35.4Zm0-4.054-3.085,3.081c-.162.162-.162.162-.325.162s-.162,0-.325-.162a.493.493,0,0,1,0-.649l2.923-2.919a.494.494,0,0,1,.649,0C40.754,30.861,40.754,31.185,40.592,31.347Zm0-4.054-3.085,2.919c-.162.162-.162.162-.325.162s-.162,0-.325-.162a.493.493,0,0,1,0-.649l2.923-2.919a.494.494,0,0,1,.649,0A.4.4,0,0,1,40.592,27.293Zm0-4.054-3.085,2.919c-.162.162-.162.162-.325.162s-.162,0-.325-.162a.493.493,0,0,1,0-.649l2.923-2.919a.494.494,0,0,1,.649,0A.4.4,0,0,1,40.592,23.24Zm0-4.216L37.506,22.1c-.162.162-.162.162-.325.162s-.162,0-.325-.162a.493.493,0,0,1,0-.649l2.923-2.919a.494.494,0,0,1,.649,0C40.754,18.7,40.754,18.862,40.592,19.024Zm0-4.054-3.085,3.081c-.162.162-.162.162-.325.162s-.162,0-.325-.162a.493.493,0,0,1,0-.649l2.923-2.919a.494.494,0,0,1,.649,0C40.754,14.483,40.754,14.808,40.592,14.97Zm0-4.054-3.085,2.919c-.162.162-.162.162-.325.162s-.162,0-.325-.162a.493.493,0,0,1,0-.649l2.923-2.919a.494.494,0,0,1,.649,0A.4.4,0,0,1,40.592,10.916Z" transform="translate(-5.03 -1.511)" fill="#99c4c8"/>
  <path id="Контур_44" data-name="Контур 44" d="M14.939,21.728h-6.5V17.837h3.735a.973.973,0,1,0,0-1.946H8.444V14.756l4.222-1.784a1.471,1.471,0,0,0,.487-1.135,1.029,1.029,0,0,0-.974-.811H8.444v-.649L12.5,8.918a1.224,1.224,0,0,0,.65-1.135.909.909,0,0,0-.974-.811H8.444V6L12.5,4.378a1.085,1.085,0,0,0,.65-1.135,1.029,1.029,0,0,0-.974-.811H8.444V0H4.709V2.432H.974A1.047,1.047,0,0,0,0,3.405a1.047,1.047,0,0,0,.974.973H4.709v.973L.65,6.972A1.085,1.085,0,0,0,0,8.108a1.029,1.029,0,0,0,.974.811H4.709v.811l-4.06,1.3A1.086,1.086,0,0,0,0,12.161a1.029,1.029,0,0,0,.974.811H4.709v1.3L.65,16.053a1.008,1.008,0,0,0-.65.973,1.029,1.029,0,0,0,.974.811H4.709v3.892H0v5.513H14.939V30.16h2.436V18.647H14.939Z" fill="#99c4c8"/>
</svg>
