<svg xmlns="http://www.w3.org/2000/svg" width="36.827" height="36.817" viewBox="0 0 36.827 36.817">
  <g id="brake-disk" transform="translate(0 -0.063)">
    <path id="Контур_223" data-name="Контур 223" d="M36.419,16.433a16.8,16.8,0,0,0-15.125-13.1,3.257,3.257,0,0,0-.173-.8A3.185,3.185,0,0,0,18.428.412L15.383.093a5.534,5.534,0,0,0-4.509,1.6L1.628,10.937a5.534,5.534,0,0,0-1.6,4.509L.35,18.491a3.186,3.186,0,0,0,2.121,2.692,3.26,3.26,0,0,0,.8.175,16.8,16.8,0,1,0,33.145-4.925ZM7.285,18.956,11.041,15.2a.761.761,0,0,0,1-.263h0a.766.766,0,0,0,.034-.769l2.419-2.419a.765.765,0,0,0,1.142-.976.753.753,0,0,0-.067-.1l3.328-3.328a12.642,12.642,0,0,1,7.99,1.946,12.788,12.788,0,1,1-19.6,9.662Zm-5.413-.625-.319-3.045A4.009,4.009,0,0,1,2.711,12.02l9.246-9.246a4.009,4.009,0,0,1,3.267-1.157l3.045.319a1.646,1.646,0,0,1,1.409,1.11,1.646,1.646,0,0,1-.4,1.749L4.732,19.344a1.646,1.646,0,0,1-1.749.4A1.646,1.646,0,0,1,1.872,18.331Zm31.036,9.945A15.267,15.267,0,0,1,4.791,21.119a3.221,3.221,0,0,0,.92-.594,14.312,14.312,0,0,0,6.632,11.644A14.22,14.22,0,0,0,20,34.409a14.444,14.444,0,0,0,3.141-.348A14.318,14.318,0,0,0,27.7,8a14.372,14.372,0,0,0-7.245-2.227,3.218,3.218,0,0,0,.6-.923A15.269,15.269,0,0,1,32.908,28.275Z" transform="translate(0 0)" fill="#286d74"/>
    <path id="Контур_224" data-name="Контур 224" d="M148.65,159.319a7.634,7.634,0,0,0,4.107,1.2,7.75,7.75,0,0,0,1.686-.187,7.685,7.685,0,1,0-5.794-1.015Zm-1.072-9.787a6.154,6.154,0,1,1,1.893,8.5A6.155,6.155,0,0,1,147.579,149.531Z" transform="translate(-132.75 -132.747)" fill="#286d74"/>
    <path id="Контур_225" data-name="Контур 225" d="M341.074,267.267a.753.753,0,0,0,.25.043.767.767,0,1,0-.25-.043Z" transform="translate(-311.593 -243.116)" fill="#286d74"/>
    <path id="Контур_226" data-name="Контур 226" d="M324.385,156.413a.766.766,0,1,0-.617-.312A.763.763,0,0,0,324.385,156.413Z" transform="translate(-296.095 -141.652)" fill="#286d74"/>
    <path id="Контур_227" data-name="Контур 227" d="M346.513,209.78a.776.776,0,0,0,.117-.008.768.768,0,1,0-.117.008Z" transform="translate(-316.341 -190.48)" fill="#286d74"/>
    <path id="Контур_228" data-name="Контур 228" d="M202.129,344.569a.766.766,0,0,0-.321,1.5.811.811,0,0,0,.162.017.766.766,0,0,0,.16-1.514Z" transform="translate(-184.09 -315.19)" fill="#286d74"/>
    <path id="Контур_229" data-name="Контур 229" d="M259.5,342.749a.766.766,0,0,0,.206,1.5.8.8,0,0,0,.208-.028.766.766,0,0,0-.413-1.475Z" transform="translate(-236.914 -313.515)" fill="#286d74"/>
    <path id="Контур_230" data-name="Контур 230" d="M309.493,314.534a.766.766,0,1,0,1.083.032A.767.767,0,0,0,309.493,314.534Z" transform="translate(-282.95 -287.535)" fill="#286d74"/>
    <path id="Контур_231" data-name="Контур 231" d="M150.487,319.489a.766.766,0,1,0,.1,1.078A.766.766,0,0,0,150.487,319.489Z" transform="translate(-136.54 -292.097)" fill="#286d74"/>
    <path id="Контур_232" data-name="Контур 232" d="M279.52,119.335l.012.006h0a.753.753,0,0,0,.333.077.766.766,0,0,0,.336-1.454l-.008,0,0,0a.766.766,0,0,0-.671,1.376Z" transform="translate(-255.354 -107.798)" fill="#286d74"/>
    <path id="Контур_233" data-name="Контур 233" d="M115.437,272.872a.765.765,0,1,0,1,.413A.765.765,0,0,0,115.437,272.872Z" transform="translate(-105.188 -249.552)" fill="#286d74"/>
    <path id="Контур_234" data-name="Контур 234" d="M106.873,217.238a.624.624,0,0,0,.069,0,.769.769,0,1,0-.069,0Z" transform="translate(-97.145 -197.306)" fill="#286d74"/>
    <path id="Контур_235" data-name="Контур 235" d="M223.362,107.353h.026a.752.752,0,1,0-.026,0Z" transform="translate(-203.665 -96.764)" fill="#286d74"/>
    <path id="Контур_236" data-name="Контур 236" d="M176.006,183.332a5.227,5.227,0,0,0,2.813.823,5.306,5.306,0,0,0,1.155-.128,5.263,5.263,0,0,0,1.678-9.578h0a5.263,5.263,0,0,0-5.646,8.883Zm-.327-6.443a3.732,3.732,0,1,1,1.148,5.151A3.732,3.732,0,0,1,175.679,176.889Z" transform="translate(-158.806 -158.804)" fill="#286d74"/>
    <path id="Контур_237" data-name="Контур 237" d="M46.021,140.836a1.979,1.979,0,1,0-1.4-.58A1.966,1.966,0,0,0,46.021,140.836Zm-.317-2.3a.448.448,0,1,1-.131.317A.445.445,0,0,1,45.7,138.54Z" transform="translate(-40.296 -125.179)" fill="#286d74"/>
    <path id="Контур_238" data-name="Контур 238" d="M138.8,48.06a1.979,1.979,0,1,0-1.4-.58A1.966,1.966,0,0,0,138.8,48.06Zm-.317-2.3a.448.448,0,1,1-.131.317A.445.445,0,0,1,138.48,45.764Z" transform="translate(-125.182 -40.294)" fill="#286d74"/>
  </g>
</svg>
