<svg xmlns="http://www.w3.org/2000/svg" width="20.692" height="36.584" viewBox="0 0 20.692 36.584">
  <g id="gas" transform="translate(-98.304)">
    <g id="Сгруппировать_182" data-name="Сгруппировать 182" transform="translate(98.304)">
      <g id="Сгруппировать_181" data-name="Сгруппировать 181">
        <path id="Контур_239" data-name="Контур 239" d="M113.409,7.491V5.132h.538a2.579,2.579,0,0,0,2.566-2.566A2.579,2.579,0,0,0,113.947,0H103.353a2.579,2.579,0,0,0-2.566,2.566,2.579,2.579,0,0,0,2.566,2.566h.538V7.491A5.975,5.975,0,0,0,98.3,13.45v6.5H119v-6.5A5.975,5.975,0,0,0,113.409,7.491Zm-2.069-.041h-1.655v-.91h-2.069v.91H105.96V5.09h5.38Z" transform="translate(-98.304)" fill="#286d74"/>
      </g>
    </g>
    <g id="Сгруппировать_184" data-name="Сгруппировать 184" transform="translate(98.304 22.016)">
      <g id="Сгруппировать_183" data-name="Сгруппировать 183">
        <path id="Контур_240" data-name="Контур 240" d="M98.3,272.384v6.621a6.04,6.04,0,0,0,3.311,5.38v2.566h14.071v-2.566a6.04,6.04,0,0,0,3.311-5.38v-6.621Z" transform="translate(-98.304 -272.384)" fill="#286d74"/>
      </g>
    </g>
  </g>
</svg>
