<svg xmlns="http://www.w3.org/2000/svg" width="205.919" height="175.674" viewBox="0 0 205.919 175.674">
  <g id="racing" transform="translate(0 -37.6)" opacity="0.31">
    <g id="Сгруппировать_94" data-name="Сгруппировать 94" transform="translate(108.009 115.364)">
      <g id="Сгруппировать_93" data-name="Сгруппировать 93">
        <path id="Контур_90" data-name="Контур 90" d="M278.628,230.954A10.073,10.073,0,1,0,288.7,241.027,10.084,10.084,0,0,0,278.628,230.954Z" transform="translate(-268.555 -230.954)" fill="#e2e8de"/>
      </g>
    </g>
    <g id="Сгруппировать_96" data-name="Сгруппировать 96" transform="translate(124.754 84.832)">
      <g id="Сгруппировать_95" data-name="Сгруппировать 95">
        <path id="Контур_91" data-name="Контур 91" d="M310.189,155.037V173.2a23.5,23.5,0,0,1,12.6,9.165l17.276-5.614A41.264,41.264,0,0,0,310.189,155.037Z" transform="translate(-310.189 -155.037)" fill="#e2e8de"/>
      </g>
    </g>
    <g id="Сгруппировать_98" data-name="Сгруппировать 98" transform="translate(136.664 119.233)">
      <g id="Сгруппировать_97" data-name="Сгруппировать 97">
        <path id="Контур_92" data-name="Контур 92" d="M361.9,240.574l-17.282,5.615c.005.2.015.391.015.589A23.293,23.293,0,0,1,339.8,261l10.67,14.685a41.126,41.126,0,0,0,11.43-35.115Z" transform="translate(-339.803 -240.574)" fill="#e2e8de"/>
      </g>
    </g>
    <g id="Сгруппировать_100" data-name="Сгруппировать 100" transform="translate(0 37.6)">
      <g id="Сгруппировать_99" data-name="Сгруппировать 99">
        <path id="Контур_93" data-name="Контур 93" d="M118.082,37.6H36.916a6.671,6.671,0,0,0,0,13.343H71.6A88.49,88.49,0,0,0,52.017,67.618H6.671a6.672,6.672,0,0,0,0,13.344H42.366A87.663,87.663,0,0,0,46.4,176.144H27.467a6.671,6.671,0,0,0,0,13.343H58.041A88.394,88.394,0,0,0,71.6,199.931H7.36a6.671,6.671,0,1,0,0,13.343H118.082a87.837,87.837,0,1,0,0-175.674Zm32.407,131.619c-.123.1-.245.208-.377.3-.149.108-.3.209-.455.3a54.388,54.388,0,0,1-63.151,0q-.232-.141-.455-.3c-.132-.1-.254-.2-.377-.3a54.493,54.493,0,1,1,64.815,0Z" transform="translate(0 -37.6)" fill="#e2e8de"/>
      </g>
    </g>
    <g id="Сгруппировать_102" data-name="Сгруппировать 102" transform="translate(81.532 84.831)">
      <g id="Сгруппировать_101" data-name="Сгруппировать 101">
        <path id="Контур_94" data-name="Контур 94" d="M202.722,176.751,220,182.365a23.507,23.507,0,0,1,12.6-9.165V155.036A41.268,41.268,0,0,0,202.722,176.751Z" transform="translate(-202.722 -155.036)" fill="#e2e8de"/>
      </g>
    </g>
    <g id="Сгруппировать_104" data-name="Сгруппировать 104" transform="translate(99.616 147.515)">
      <g id="Сгруппировать_103" data-name="Сгруппировать 103">
        <path id="Контур_95" data-name="Контур 95" d="M273.945,310.894a23.355,23.355,0,0,1-15.588,0l-10.672,14.689a41.089,41.089,0,0,0,36.933,0Z" transform="translate(-247.685 -310.894)" fill="#e2e8de"/>
      </g>
    </g>
    <g id="Сгруппировать_106" data-name="Сгруппировать 106" transform="translate(76.931 119.233)">
      <g id="Сгруппировать_105" data-name="Сгруппировать 105">
        <path id="Контур_96" data-name="Контур 96" d="M209.018,246.778c0-.2.01-.392.014-.588l-17.282-5.615a41.127,41.127,0,0,0,11.431,35.116L213.851,261A23.293,23.293,0,0,1,209.018,246.778Z" transform="translate(-191.283 -240.574)" fill="#e2e8de"/>
      </g>
    </g>
  </g>
</svg>
