<svg xmlns="http://www.w3.org/2000/svg" width="22.217" height="19.043" viewBox="0 0 22.217 19.043">
  <g id="external-link-symbol" transform="translate(0 -36.547)">
    <g id="Сгруппировать_78" data-name="Сгруппировать 78" transform="translate(0 36.547)">
      <path id="Контур_80" data-name="Контур 80" d="M17.059,82.611h-.794a.382.382,0,0,0-.4.4v3.967a1.989,1.989,0,0,1-1.984,1.983H3.57a1.91,1.91,0,0,1-1.4-.582,1.91,1.91,0,0,1-.583-1.4V76.66a1.91,1.91,0,0,1,.583-1.4,1.91,1.91,0,0,1,1.4-.583H12.3a.382.382,0,0,0,.4-.4v-.794a.382.382,0,0,0-.4-.4H3.57a3.44,3.44,0,0,0-2.523,1.048A3.439,3.439,0,0,0,0,76.66V86.975A3.439,3.439,0,0,0,1.048,89.5a3.44,3.44,0,0,0,2.523,1.048H13.886a3.577,3.577,0,0,0,3.571-3.571V83.008a.383.383,0,0,0-.4-.4Z" transform="translate(0 -71.503)" fill="#286d74"/>
      <path id="Контур_81" data-name="Контур 81" d="M209.057,36.783a.763.763,0,0,0-.558-.236h-6.348a.789.789,0,0,0-.558,1.351l2.182,2.182-8.083,8.083a.39.39,0,0,0,0,.57l1.413,1.413a.39.39,0,0,0,.57,0l8.083-8.083,2.182,2.182a.793.793,0,0,0,1.351-.558V37.34A.763.763,0,0,0,209.057,36.783Z" transform="translate(-187.076 -36.547)" fill="#286d74"/>
    </g>
  </g>
</svg>
