<svg xmlns="http://www.w3.org/2000/svg" width="29.162" height="26.728" viewBox="0 0 29.162 26.728">
  <path id="shopping-cart_3_" data-name="shopping-cart (3)" d="M27.964,26.2H5.163l-.339-3.776a1.2,1.2,0,0,0-1.193-1.091H1.2a1.2,1.2,0,1,0,0,2.4H2.536c.731,8.149-1.159-12.913,1.377,15.346A4.608,4.608,0,0,0,5.638,42.2a3.63,3.63,0,1,0,6.273,1h6.555a3.631,3.631,0,1,0,3.414-2.4H8.506a2.224,2.224,0,0,1-2.045-1.349L25.6,38.331a1.2,1.2,0,0,0,1.092-.905l2.434-9.733A1.2,1.2,0,0,0,27.964,26.2ZM8.5,45.671a1.236,1.236,0,1,1,1.236-1.236A1.237,1.237,0,0,1,8.5,45.671Zm13.383,0a1.236,1.236,0,1,1,1.236-1.236A1.237,1.237,0,0,1,21.881,45.671Zm2.7-9.68L6.139,37.075,5.378,28.6H26.43Z" transform="translate(0 -21.338)" fill="#286d74" opacity="0.82"/>
</svg>
