<svg xmlns="http://www.w3.org/2000/svg" width="23.602" height="19.912" viewBox="0 0 23.602 19.912">
  <g id="online-supermarket-cart" transform="translate(-0.001 -20.287)">
    <path id="Контур_164" data-name="Контур 164" d="M17.891,22.03a.6.6,0,0,1,.5-.379h4.188a.682.682,0,1,0,0-1.364H18.391a1.967,1.967,0,0,0-1.813,1.372l-1.131,4a1.515,1.515,0,0,0-.407-.057H1.508a1.492,1.492,0,0,0-1.5,1.654l.631,6.4a1.7,1.7,0,0,0,1.678,1.52h10.5A1.949,1.949,0,0,0,14.625,33.8l1.316-4.866ZM13.308,33.44a.584.584,0,0,1-.488.374H2.317a.347.347,0,0,1-.32-.29l-.631-6.4a.13.13,0,0,1,.141-.156H15.057c0,.005,0,.011,0,.017Z" transform="translate(0)" fill="#286d74"/>
    <path id="Контур_165" data-name="Контур 165" d="M26.153,192.543a2.122,2.122,0,1,0,2.122,2.122A2.124,2.124,0,0,0,26.153,192.543Zm0,2.879a.757.757,0,1,1,.757-.757A.758.758,0,0,1,26.153,195.422Z" transform="translate(-21.844 -156.588)" fill="#286d74"/>
    <path id="Контур_166" data-name="Контур 166" d="M100.122,192.543a2.122,2.122,0,1,0,2.122,2.122A2.124,2.124,0,0,0,100.122,192.543Zm0,2.879a.757.757,0,1,1,.757-.757A.758.758,0,0,1,100.122,195.422Z" transform="translate(-89.085 -156.588)" fill="#286d74"/>
    <path id="Контур_167" data-name="Контур 167" d="M200.724,81.271H195.8a.455.455,0,0,0,0,.91h4.925a.455.455,0,1,0,0-.91Z" transform="translate(-177.575 -55.437)" fill="#286d74"/>
    <path id="Контур_168" data-name="Контур 168" d="M191.172,104.545h-4.378a.455.455,0,1,0,0,.91h4.378a.455.455,0,1,0,0-.91Z" transform="translate(-169.389 -76.594)" fill="#286d74"/>
    <path id="Контур_169" data-name="Контур 169" d="M184.533,127.82h-3.741a.455.455,0,0,0,0,.91h3.741a.455.455,0,1,0,0-.91Z" transform="translate(-163.933 -97.752)" fill="#286d74"/>
  </g>
</svg>
