<svg xmlns="http://www.w3.org/2000/svg" width="43.352" height="46.666" viewBox="0 0 43.352 46.666">
  <path id="Контур_23" data-name="Контур 23" d="M37.763,3.646H33.868V1.458a1.358,1.358,0,1,0-2.709,0V3.646H12.193V1.458a1.358,1.358,0,1,0-2.709,0V3.646H5.588A5.82,5.82,0,0,0,0,9.661V40.651a5.82,5.82,0,0,0,5.588,6.016H37.763a5.82,5.82,0,0,0,5.588-6.016V9.661A5.82,5.82,0,0,0,37.763,3.646ZM5.588,6.562H9.483V8.021a1.358,1.358,0,1,0,2.709,0V6.562H31.159V8.021a1.358,1.358,0,1,0,2.709,0V6.562h3.895a3,3,0,0,1,2.879,3.1v3.464H2.709V9.661A3,3,0,0,1,5.588,6.562ZM37.763,43.75H5.588a3,3,0,0,1-2.879-3.1V16.042H40.642V40.651A3,3,0,0,1,37.763,43.75Z" fill="#286d74"/>
</svg>
