<svg xmlns="http://www.w3.org/2000/svg" width="32.241" height="29.987" viewBox="0 0 32.241 29.987">
  <path id="Контур_17" data-name="Контур 17" d="M28.085,2.343h-2.9V.937a1.01,1.01,0,0,0-2.015,0V2.343H9.068V.937a1.01,1.01,0,0,0-2.015,0V2.343h-2.9A4.023,4.023,0,0,0,0,6.208V26.122a4.023,4.023,0,0,0,4.156,3.866H28.085a4.023,4.023,0,0,0,4.156-3.866V6.208A4.023,4.023,0,0,0,28.085,2.343ZM4.156,4.217h2.9v.937a1.01,1.01,0,0,0,2.015,0V4.217H23.173v.937a1.01,1.01,0,0,0,2.015,0V4.217h2.9a2.073,2.073,0,0,1,2.141,1.991V8.434H2.015V6.208A2.073,2.073,0,0,1,4.156,4.217Zm23.929,23.9H4.156a2.073,2.073,0,0,1-2.141-1.991V10.308H30.226V26.122A2.073,2.073,0,0,1,28.085,28.113Z" fill="#286d74"/>
</svg>
