<svg xmlns="http://www.w3.org/2000/svg" width="37.018" height="33.879" viewBox="0 0 37.018 33.879">
  <g id="shopping-cart_4_" data-name="shopping-cart (4)" transform="translate(0 -21.705)">
    <g id="Сгруппировать_30" data-name="Сгруппировать 30" transform="translate(24.694 46.353)">
      <g id="Сгруппировать_29" data-name="Сгруппировать 29">
        <path id="Контур_18" data-name="Контур 18" d="M346.163,362.612a4.616,4.616,0,1,0,4.616,4.616A4.621,4.621,0,0,0,346.163,362.612Zm0,6.462a1.846,1.846,0,1,1,1.846-1.846A1.848,1.848,0,0,1,346.163,369.074Z" transform="translate(-341.547 -362.612)" fill="#286d74"/>
      </g>
    </g>
    <g id="Сгруппировать_32" data-name="Сгруппировать 32" transform="translate(0 21.705)">
      <g id="Сгруппировать_31" data-name="Сгруппировать 31" transform="translate(0 0)">
        <path id="Контур_19" data-name="Контур 19" d="M36.723,28.514a1.383,1.383,0,0,0-1.09-.531H8.547L7.3,22.768A1.385,1.385,0,0,0,5.954,21.7H1.385a1.385,1.385,0,1,0,0,2.769H4.861l4.5,18.83a1.385,1.385,0,0,0,1.347,1.063H32.264a1.384,1.384,0,0,0,1.344-1.051L36.977,29.7A1.387,1.387,0,0,0,36.723,28.514ZM31.18,41.6H11.8L9.209,30.752H33.864Z" transform="translate(0 -21.705)" fill="#286d74"/>
      </g>
    </g>
    <g id="Сгруппировать_34" data-name="Сгруппировать 34" transform="translate(7.939 46.353)">
      <g id="Сгруппировать_33" data-name="Сгруппировать 33">
        <path id="Контур_20" data-name="Контур 20" d="M114.422,362.612a4.616,4.616,0,1,0,4.616,4.616A4.621,4.621,0,0,0,114.422,362.612Zm0,6.462a1.846,1.846,0,1,1,1.846-1.846A1.848,1.848,0,0,1,114.422,369.074Z" transform="translate(-109.806 -362.612)" fill="#286d74"/>
      </g>
    </g>
  </g>
</svg>
