<svg xmlns="http://www.w3.org/2000/svg" width="51.874" height="43.771" viewBox="0 0 51.874 43.771">
  <g id="favorite" transform="translate(0 -39.989)">
    <path id="Контур_27" data-name="Контур 27" d="M10.356,83.76a3.881,3.881,0,0,1-1.624-.36,3.821,3.821,0,0,1-2.247-3.507V75.652H4.661A4.666,4.666,0,0,1,0,70.992V44.65a4.666,4.666,0,0,1,4.661-4.661H47.213a4.666,4.666,0,0,1,4.661,4.661V70.992a4.666,4.666,0,0,1-4.661,4.661H20.119l-7.177,7.094q-.041.04-.085.078A3.832,3.832,0,0,1,10.356,83.76Zm-5.7-40.528A1.42,1.42,0,0,0,3.242,44.65V70.992A1.42,1.42,0,0,0,4.661,72.41H8.105a1.621,1.621,0,0,1,1.621,1.621v5.862a.618.618,0,0,0,.988.5l7.6-7.51a1.621,1.621,0,0,1,1.139-.468h27.76a1.42,1.42,0,0,0,1.418-1.418V44.65a1.42,1.42,0,0,0-1.418-1.418H4.661Z" fill="#286d74"/>
    <path id="Контур_28" data-name="Контур 28" d="M154.67,119.5a1.619,1.619,0,0,1-.761-.19l-5.751-3.057-5.751,3.057a1.621,1.621,0,0,1-2.359-1.7l1.1-6.5-4.667-4.6a1.621,1.621,0,0,1,.9-2.758l6.435-.945,2.881-5.9a1.621,1.621,0,0,1,2.913,0l2.881,5.9,6.435.945a1.621,1.621,0,0,1,.9,2.758l-4.667,4.6,1.1,6.5a1.621,1.621,0,0,1-1.6,1.892Zm-6.512-6.7a1.62,1.62,0,0,1,.761.19l3.6,1.914-.692-4.082a1.621,1.621,0,0,1,.46-1.426l2.95-2.907-4.06-.6a1.621,1.621,0,0,1-1.221-.893l-1.8-3.686-1.8,3.686a1.621,1.621,0,0,1-1.221.893l-4.06.6,2.95,2.907a1.621,1.621,0,0,1,.46,1.426l-.692,4.082,3.6-1.914A1.62,1.62,0,0,1,148.158,112.792Z" transform="translate(-122.221 -50.327)" fill="#286d74"/>
  </g>
</svg>
