<svg id="settings" xmlns="http://www.w3.org/2000/svg" width="51.073" height="51.073" viewBox="0 0 51.073 51.073">
  <g id="Сгруппировать_36" data-name="Сгруппировать 36">
    <g id="Сгруппировать_35" data-name="Сгруппировать 35">
      <path id="Контур_21" data-name="Контур 21" d="M47.742,19.985H43.585A18.79,18.79,0,0,0,42.226,16.7l2.937-2.937a3.336,3.336,0,0,0,0-4.713L42.021,5.909a3.415,3.415,0,0,0-4.712,0L34.372,8.846a18.841,18.841,0,0,0-3.284-1.359V3.331A3.335,3.335,0,0,0,27.757,0H23.316a3.335,3.335,0,0,0-3.331,3.331V7.488A18.876,18.876,0,0,0,16.7,8.847L13.763,5.91a3.336,3.336,0,0,0-4.712,0L5.908,9.052a3.338,3.338,0,0,0,0,4.712L8.845,16.7a18.841,18.841,0,0,0-1.359,3.284H3.331A3.335,3.335,0,0,0,0,23.317v4.441a3.335,3.335,0,0,0,3.331,3.33H7.488a18.876,18.876,0,0,0,1.359,3.284L5.91,37.31a3.336,3.336,0,0,0,0,4.712l3.142,3.143a3.338,3.338,0,0,0,4.712,0L16.7,42.229a18.84,18.84,0,0,0,3.284,1.359v4.155a3.335,3.335,0,0,0,3.331,3.331h4.441a3.335,3.335,0,0,0,3.331-3.331V43.585a18.84,18.84,0,0,0,3.284-1.359l2.937,2.938a3.416,3.416,0,0,0,4.712,0l3.142-3.142a3.335,3.335,0,0,0,0-4.712l-2.937-2.938a18.84,18.84,0,0,0,1.359-3.284h4.156a3.335,3.335,0,0,0,3.331-3.331V23.316A3.335,3.335,0,0,0,47.742,19.985Zm1.11,7.772a1.111,1.111,0,0,1-1.11,1.11h-5a1.111,1.111,0,0,0-1.075.833A16.689,16.689,0,0,1,39.89,34a1.112,1.112,0,0,0,.171,1.349l3.531,3.532a1.115,1.115,0,0,1,0,1.572L40.45,43.594a1.143,1.143,0,0,1-1.572,0l-3.531-3.531A1.112,1.112,0,0,0,34,39.893a16.63,16.63,0,0,1-4.3,1.78,1.109,1.109,0,0,0-.832,1.074v5a1.111,1.111,0,0,1-1.11,1.11H23.316a1.112,1.112,0,0,1-1.11-1.11v-5a1.111,1.111,0,0,0-.833-1.075,16.647,16.647,0,0,1-4.3-1.78,1.1,1.1,0,0,0-.564-.154,1.11,1.11,0,0,0-.786.325l-3.531,3.531a1.114,1.114,0,0,1-1.572,0L7.479,40.451a1.112,1.112,0,0,1,0-1.572l3.531-3.531A1.109,1.109,0,0,0,11.181,34,16.67,16.67,0,0,1,9.4,29.7a1.108,1.108,0,0,0-1.074-.833h-5a1.112,1.112,0,0,1-1.11-1.11V23.316a1.112,1.112,0,0,1,1.11-1.11h5A1.111,1.111,0,0,0,9.4,21.373a16.647,16.647,0,0,1,1.78-4.3,1.109,1.109,0,0,0-.171-1.349L7.48,12.194a1.114,1.114,0,0,1,0-1.572L10.622,7.48a1.113,1.113,0,0,1,1.572,0l3.531,3.531a1.107,1.107,0,0,0,1.349.171,16.67,16.67,0,0,1,4.3-1.78,1.111,1.111,0,0,0,.833-1.075v-5a1.112,1.112,0,0,1,1.11-1.11h4.441a1.111,1.111,0,0,1,1.11,1.11v5A1.111,1.111,0,0,0,29.7,9.4a16.63,16.63,0,0,1,4.3,1.78,1.108,1.108,0,0,0,1.35-.171L38.879,7.48a1.14,1.14,0,0,1,1.572,0l3.142,3.142a1.115,1.115,0,0,1,0,1.572l-3.531,3.531a1.111,1.111,0,0,0-.171,1.349,16.673,16.673,0,0,1,1.781,4.3,1.108,1.108,0,0,0,1.074.833h5a1.111,1.111,0,0,1,1.11,1.11Z" fill="#286d74"/>
    </g>
  </g>
  <g id="Сгруппировать_38" data-name="Сгруппировать 38" transform="translate(15.544 15.544)">
    <g id="Сгруппировать_37" data-name="Сгруппировать 37">
      <path id="Контур_22" data-name="Контур 22" d="M121.993,112a9.993,9.993,0,1,0,9.993,9.993A10,10,0,0,0,121.993,112Zm0,17.765a7.772,7.772,0,1,1,7.772-7.772A7.781,7.781,0,0,1,121.993,129.765Z" transform="translate(-112 -112)" fill="#286d74"/>
    </g>
  </g>
</svg>
