<svg xmlns="http://www.w3.org/2000/svg" width="43.512" height="51.098" viewBox="0 0 43.512 51.098">
  <g id="surface1" transform="translate(0 0.001)">
    <path id="Контур_24" data-name="Контур 24" d="M43.462,13.863v-.04c-.022-.491-.037-1.01-.046-1.588a5.416,5.416,0,0,0-5.1-5.305A21.014,21.014,0,0,1,24.012.9L23.979.87a3.27,3.27,0,0,0-4.444,0L19.5.9A21.017,21.017,0,0,1,5.2,6.931,5.415,5.415,0,0,0,.1,12.236c-.009.574-.024,1.093-.046,1.588l0,.092C-.063,19.906-.2,27.362,2.289,34.129a25.732,25.732,0,0,0,6.173,9.615,32.293,32.293,0,0,0,12.08,7.145,3.742,3.742,0,0,0,.5.135,3.657,3.657,0,0,0,1.438,0,3.753,3.753,0,0,0,.5-.136A32.314,32.314,0,0,0,35.04,43.74a25.768,25.768,0,0,0,6.173-9.618C43.717,27.335,43.576,19.865,43.462,13.863ZM38.4,33.085c-2.631,7.133-8,12.031-16.417,14.974a.753.753,0,0,1-.1.026.673.673,0,0,1-.263,0,.747.747,0,0,1-.094-.025C13.105,45.121,7.732,40.226,5.1,33.093c-2.3-6.238-2.169-13.082-2.054-19.12V13.94c.023-.519.039-1.062.048-1.66A2.407,2.407,0,0,1,5.366,9.924,26.307,26.307,0,0,0,14.295,7.96a23.361,23.361,0,0,0,7.276-4.889.276.276,0,0,1,.371,0A23.369,23.369,0,0,0,29.219,7.96a26.308,26.308,0,0,0,8.929,1.964,2.406,2.406,0,0,1,2.268,2.356c.009.6.025,1.144.048,1.659C40.579,19.984,40.706,26.834,38.4,33.085Zm0,0" transform="translate(0 0)" fill="#286d74"/>
    <path id="Контур_25" data-name="Контур 25" d="M103.133,128.41a12.734,12.734,0,1,0,12.734,12.734A12.749,12.749,0,0,0,103.133,128.41Zm0,22.47a9.736,9.736,0,1,1,9.736-9.736A9.747,9.747,0,0,1,103.133,150.88Zm0,0" transform="translate(-81.376 -115.596)" fill="#286d74"/>
    <path id="Контур_26" data-name="Контур 26" d="M163.752,212.43l-5.915,5.915-1.605-1.605a1.5,1.5,0,0,0-2.12,2.12l2.666,2.666a1.5,1.5,0,0,0,2.12,0l6.975-6.975a1.5,1.5,0,1,0-2.12-2.12Zm0,0" transform="translate(-138.336 -190.835)" fill="#286d74"/>
  </g>
</svg>
