<svg id="bmw" xmlns="http://www.w3.org/2000/svg" width="52.849" height="52.849" viewBox="0 0 52.849 52.849">
  <g id="Сгруппировать_53" data-name="Сгруппировать 53" transform="translate(23.595 2.502)">
    <g id="Сгруппировать_52" data-name="Сгруппировать 52">
      <path id="Контур_53" data-name="Контур 53" d="M232.447,24.24a1.789,1.789,0,0,1-2.062,0,1.8,1.8,0,0,0-1.8,1.8v3.47a.774.774,0,0,0,1.548,0v-3.47a.25.25,0,0,1,.5,0v3.47a.774.774,0,0,0,.774.774h.013a.774.774,0,0,0,.774-.774v-3.47a.25.25,0,0,1,.5,0v3.47a.774.774,0,0,0,1.548,0v-3.47A1.8,1.8,0,0,0,232.447,24.24Z" transform="translate(-228.586 -24.24)" fill="#286d74"/>
    </g>
  </g>
  <g id="Сгруппировать_55" data-name="Сгруппировать 55" transform="translate(12.716 4.955)">
    <g id="Сгруппировать_54" data-name="Сгруппировать 54">
      <path id="Контур_54" data-name="Контур 54" d="M129.187,50.866a1.861,1.861,0,0,0-.86-.779,1.873,1.873,0,0,0-2.793-1.835l-1.947,1.111a.774.774,0,0,0-.289,1.056l1.093,1.915,1.093,1.915a.774.774,0,0,0,1.056.289l1.947-1.111A1.879,1.879,0,0,0,129.187,50.866Zm-3.835.028-.325-.57L126.3,49.6a.328.328,0,0,1,.325.57Zm2.368,1.187-1.275.727-.325-.57.692-.395.583-.333a.328.328,0,0,1,.325.57Z" transform="translate(-123.196 -48.006)" fill="#286d74"/>
    </g>
  </g>
  <g id="Сгруппировать_57" data-name="Сгруппировать 57" transform="translate(33.198 4.266)">
    <g id="Сгруппировать_56" data-name="Сгруппировать 56">
      <path id="Контур_55" data-name="Контур 55" d="M328.209,43.469a.774.774,0,0,0-1.056.289l-1.719,3.014a.25.25,0,0,1-.435-.248l1.719-3.014a.774.774,0,0,0-.289-1.056l0,0-.006,0a.774.774,0,0,0-1.056.289l-1.719,3.014a.25.25,0,1,1-.435-.248l1.719-3.014a.774.774,0,0,0-1.345-.767l-1.719,3.014a1.8,1.8,0,0,0,1.559,2.69c.057,0,.113,0,.169-.009a1.8,1.8,0,0,0,1.622,1.032,1.807,1.807,0,0,0,.477-.065,1.787,1.787,0,0,0,1.088-.844l1.719-3.014A.774.774,0,0,0,328.209,43.469Z" transform="translate(-321.627 -41.331)" fill="#286d74"/>
    </g>
  </g>
  <g id="Сгруппировать_59" data-name="Сгруппировать 59" transform="translate(0 0)">
    <g id="Сгруппировать_58" data-name="Сгруппировать 58">
      <path id="Контур_56" data-name="Контур 56" d="M45.109,7.739A26.425,26.425,0,0,0,9.029,6.533.774.774,0,1,0,10.049,7.7a24.872,24.872,0,1,1-2.676,2.73.774.774,0,0,0-1.185-1A26.425,26.425,0,1,0,45.109,7.739Z" transform="translate(0 0)" fill="#286d74"/>
    </g>
  </g>
  <g id="Сгруппировать_61" data-name="Сгруппировать 61" transform="translate(9.341 9.341)">
    <g id="Сгруппировать_60" data-name="Сгруппировать 60">
      <path id="Контур_57" data-name="Контур 57" d="M107.583,90.5a17.083,17.083,0,1,0,17.083,17.083A17.1,17.1,0,0,0,107.583,90.5Zm-.774,1.568v14.741H92.068A15.556,15.556,0,0,1,106.809,92.068Zm1.548,31.031v-2.32a.774.774,0,0,0-1.548,0v2.32a15.556,15.556,0,0,1-14.741-14.741h14.741v9.1a.774.774,0,1,0,1.548,0v-9.1h2.529a.774.774,0,0,0,0-1.548h-2.529V92.068A15.556,15.556,0,0,1,123.1,106.809h-8.858a.774.774,0,0,0,0,1.548H123.1A15.556,15.556,0,0,1,108.357,123.1Z" transform="translate(-90.5 -90.5)" fill="#286d74"/>
    </g>
  </g>
</svg>
