<svg xmlns="http://www.w3.org/2000/svg" width="51.568" height="35.755" viewBox="0 0 51.568 35.755">
  <g id="lexus" transform="translate(0 -78.5)">
    <g id="Сгруппировать_75" data-name="Сгруппировать 75" transform="translate(0 78.5)">
      <g id="Сгруппировать_74" data-name="Сгруппировать 74" transform="translate(0 0)">
        <path id="Контур_78" data-name="Контур 78" d="M43.908,83.647A32.334,32.334,0,0,0,25.784,78.5,35.122,35.122,0,0,0,14.14,80.416a26.013,26.013,0,0,0-8.922,5.16.755.755,0,1,0,1.02,1.115,24.5,24.5,0,0,1,8.4-4.849,33.619,33.619,0,0,1,11.144-1.83c13.384,0,24.273,7.342,24.273,16.367s-10.889,16.367-24.273,16.367S1.511,105.4,1.511,96.378a12.043,12.043,0,0,1,2.457-7.165.755.755,0,1,0-1.222-.888A13.522,13.522,0,0,0,0,96.378c0,4.83,2.72,9.352,7.66,12.731a32.334,32.334,0,0,0,18.124,5.147,32.334,32.334,0,0,0,18.124-5.147c4.939-3.379,7.66-7.9,7.66-12.731S48.848,87.026,43.908,83.647Z" transform="translate(0 -78.5)" fill="#286d74"/>
      </g>
    </g>
    <g id="Сгруппировать_77" data-name="Сгруппировать 77" transform="translate(4.346 80.431)">
      <g id="Сгруппировать_76" data-name="Сгруппировать 76">
        <path id="Контур_79" data-name="Контур 79" d="M83.578,106.191a.755.755,0,1,0-1.234.872,11.21,11.21,0,0,1,2.174,6.555,10.506,10.506,0,0,1-.356,2.7l-23.055.193a.065.065,0,0,1-.065-.039.048.048,0,0,1,.008-.061c1.945-2.509,7.038-8.975,12.856-15.545a20.023,20.023,0,0,1,6.335,3.829.755.755,0,0,0,1.022-1.113,21.739,21.739,0,0,0-7.32-4.314q-.251-.091-.5-.178a27.137,27.137,0,0,0-8.057-1.41h-.006c-.269-.009-.52-.009-.785-.009a25.549,25.549,0,0,0-15.069,4.6c-4.106,3.016-6.368,7.048-6.368,11.354s2.262,8.332,6.368,11.347a25.557,25.557,0,0,0,15.069,4.595,27.718,27.718,0,0,0,9.8-1.756,21.165,21.165,0,0,0,7.459-4.723q.176-.176.345-.356a14.02,14.02,0,0,0,3.256-5.429v-.006a12.059,12.059,0,0,0,.576-3.672A12.863,12.863,0,0,0,83.578,106.191Zm.059,11.669-.032.075q-.051.119-.105.238l-.045.1q-.054.116-.111.231l-.039.079q-.077.154-.159.305l-.016.029q-.074.137-.153.272l-.05.086q-.066.112-.134.223l-.051.083q-.086.137-.177.274l-.013.02q-.1.149-.2.3l-.046.064q-.082.115-.168.229l-.06.079q-.089.117-.181.233l-.043.054q-.116.144-.237.287l-.027.031q-.105.124-.214.246l-.069.077q-.094.1-.19.206l-.071.075-.043.045H77.484a.755.755,0,0,0,0,1.511h1.857a23.964,23.964,0,0,1-14.749,4.746c-10.987,0-19.927-6.474-19.927-14.431,0-7.774,8.522-14.132,19.152-14.428-3.343,4.363-9.539,12.788-12.384,18.829l-.009.02a4.1,4.1,0,0,0,.159,3.569c.736,1.124,2.181,1.694,4.293,1.694H74.261a.755.755,0,0,0,0-1.511H55.877c-1.077,0-2.476-.174-3.026-1.005a2.588,2.588,0,0,1-.044-2.137c1.023-2.169,4.309-8.355,12.91-19.449l.087,0,.175.008.32.018.179.011.335.025.151.012q.24.021.479.045l.048.005q.216.023.43.049l.156.02.325.044.169.024.321.05.155.025q.2.033.392.069l.076.013q.236.044.47.092l.109.023.358.078.147.034.324.077.147.036.348.091.109.029q.23.063.458.13l.038.011c.115.034.229.069.343.1-5.676,6.441-10.6,12.695-12.508,15.156a1.558,1.558,0,0,0-.171,1.651,1.574,1.574,0,0,0,1.428.886l22.535-.189Z" transform="translate(-43.155 -97.668)" fill="#286d74"/>
      </g>
    </g>
  </g>
</svg>
