<svg id="merc" xmlns="http://www.w3.org/2000/svg" width="52.851" height="52.37" viewBox="0 0 52.851 52.37">
  <g id="Сгруппировать_49" data-name="Сгруппировать 49">
    <g id="Сгруппировать_48" data-name="Сгруппировать 48">
      <path id="Контур_51" data-name="Контур 51" d="M45.109,7.668a26.595,26.595,0,0,0-37.367,0,26.014,26.014,0,0,0,0,37.033,26.6,26.6,0,0,0,35.719,1.5.762.762,0,0,0,.092-1.081.779.779,0,0,0-1.091-.091A25.041,25.041,0,0,1,8.837,43.616,24.383,24.383,0,0,1,1.548,26.181a24.878,24.878,0,0,1,49.754,0A24.486,24.486,0,0,1,44.97,42.614a.762.762,0,0,0,.061,1.083.779.779,0,0,0,1.093-.06A26.01,26.01,0,0,0,45.109,7.668Z" fill="#286d74"/>
    </g>
  </g>
  <g id="Сгруппировать_51" data-name="Сгруппировать 51" transform="translate(3.58 3.575)">
    <g id="Сгруппировать_50" data-name="Сгруппировать 50">
      <path id="Контур_52" data-name="Контур 52" d="M57.848,34.951A22.61,22.61,0,1,0,80.693,57.56,22.754,22.754,0,0,0,57.848,34.951ZM36.554,57.56A21.2,21.2,0,0,1,56.877,36.508L52.851,54.477,38.819,67.012A20.769,20.769,0,0,1,36.554,57.56ZM57.072,42.726v13.33l-11.619,7.1,8.62-7.7a.767.767,0,0,0,.2-.29.754.754,0,0,0,.035-.114Zm.776,35.908a21.348,21.348,0,0,1-18.11-10L51.517,64.22a.765.765,0,0,0,.45-.989.778.778,0,0,0-1-.446l-5.072,1.9,11.953-7.3,11.955,7.3L58.122,60.31a.784.784,0,0,0-.549,0l-3.481,1.3a.765.765,0,0,0-.45.989.778.778,0,0,0,1,.446l3.206-1.2,18.111,6.785A21.349,21.349,0,0,1,57.848,78.634Zm5-24.157-.821-3.664a.776.776,0,0,0-.925-.583.767.767,0,0,0-.589.915l.868,3.873a.76.76,0,0,0,.243.434l8.617,7.7L58.624,56.055V42.732l.232,1.037c0,.01.005.019.008.028l.944,4.214a.775.775,0,0,0,.925.583.767.767,0,0,0,.589-.915l-2.5-11.171A21.2,21.2,0,0,1,79.143,57.56a20.768,20.768,0,0,1-2.266,9.452Z" transform="translate(-35.003 -34.951)" fill="#286d74"/>
    </g>
  </g>
</svg>
