<svg id="skoda" xmlns="http://www.w3.org/2000/svg" width="52.851" height="52.851" viewBox="0 0 52.851 52.851">
  <path id="Контур_58" data-name="Контур 58" d="M26.437,52.851A26.426,26.426,0,1,0,0,26.437,26.411,26.411,0,0,0,26.437,52.851Z" fill="#286d74"/>
  <path id="Контур_59" data-name="Контур 59" d="M38.646,64.012A25.787,25.787,0,1,0,12.871,38.237,25.772,25.772,0,0,0,38.646,64.012Z" transform="translate(-12.21 -11.8)" fill="#fff"/>
  <path id="Контур_60" data-name="Контур 60" d="M52.075,77.1A25.037,25.037,0,1,0,27.027,52.075,25.047,25.047,0,0,0,52.075,77.1Z" transform="translate(-25.638 -25.638)" fill="#286d74"/>
  <path id="Контур_61" data-name="Контур 61" d="M218.944,93.007c8.838,0,15.988-6.744,15.988-15.032,0-8.31-7.15-15.054-15.988-15.054s-16.012,6.745-16.012,15.054C202.932,86.263,210.106,93.007,218.944,93.007Zm2.954-36.7a4.251,4.251,0,0,1,.586,3.24,2.675,2.675,0,0,1-2.016,1.9c-1.5.176-3.329.529-4.665-.816a4.138,4.138,0,0,1-.469-3.5c.375-1.344,2.016-1.7,3.353-1.785A4.551,4.551,0,0,1,221.9,56.309Z" transform="translate(-192.507 -52.496)" fill="#fff"/>
  <path id="Контур_62" data-name="Контур 62" d="M468.67,78.684c.088.816.353,2.072-.264,2.777a1.68,1.68,0,0,1-1.874.176,2.852,2.852,0,0,1-.441-2.689,1.345,1.345,0,0,1,.992-1.168A1.385,1.385,0,0,1,468.67,78.684Z" transform="translate(-441.07 -73.769)" fill="#286d74"/>
  <path id="Контур_63" data-name="Контур 63" d="M629.506,101.54a3.419,3.419,0,0,1-.529,2.954,2.84,2.84,0,0,1-2.336,1.367,12.644,12.644,0,0,1-4.122-2.05l2.844-5.136C626.817,99.468,628.6,99.931,629.506,101.54Z" transform="translate(-589.14 -93.606)" fill="#fff"/>
  <path id="Контур_64" data-name="Контур 64" d="M667.291,136.4a2.5,2.5,0,0,1-.992,2.248c-.705.551-2.16-.529-2.16-.529l1.609-2.976C666.387,135.52,667.115,135.7,667.291,136.4Z" transform="translate(-628.652 -128.202)" fill="#286d74"/>
  <path id="Контур_65" data-name="Контур 65" d="M95.343,242.183c-.554.617-1.223,1.168-1.315,1.962a.559.559,0,0,0,.576.551c.923-.727,1.869-2.248,3.184-1.9a1.818,1.818,0,0,1,1.5,1.168c.392,1.609-.831,2.976-1.961,4.034l-1.038-.617c.761-.639,1.868-1.609,1.407-2.6-1.453-.683-1.684,1.873-3.183,1.873a1.966,1.966,0,0,1-1.8-1.168,4.557,4.557,0,0,1-.092-.728,3.083,3.083,0,0,1,.461-1.521,7.667,7.667,0,0,1,.577-.793l.853-.9ZM92.62,243.7c-.208.022-.577.066-.807.088.046-.154.254-.639.254-.639l.738-.11-.346-.573c.161-.22.277-.463.438-.683l.415.727Zm42.17,1.146-4.614,4.915-.876-1.785,1.107-1.014-1.246-2.049-1.407.308-1.062-1.433,6.759-1.08Z" transform="translate(-87.096 -228.579)" fill="#fff"/>
  <path id="Контур_66" data-name="Контур 66" d="M808.656,293.272l-.794-1.433,2.711-.529Z" transform="translate(-764.445 -275.759)" fill="#286d74"/>
  <path id="Контур_67" data-name="Контур 67" d="M241.3,775.317l-1.445-.86.308-.947-1.3-.9-.947.6c-.379-.309-.734-.617-1.09-.926l3.766-2.6,1.942,1.08Zm22.928-3.658a1.588,1.588,0,0,1-.5,1.983,3.4,3.4,0,0,1-2.7,1.08,2.738,2.738,0,0,1-2.013-1.7,1.866,1.866,0,0,1,.379-1.983A4.64,4.64,0,0,1,262,769.873,2.928,2.928,0,0,1,264.228,771.658Z" transform="translate(-224.657 -728.219)" fill="#fff"/>
  <path id="Контур_68" data-name="Контур 68" d="M289.207,796.006l-.9-.639,1.278-1.065Zm22.194-.355a.968.968,0,0,1-.758,1.443c-.993.19-1.325-.9-1.656-1.467a1.035,1.035,0,0,1,.758-1.443C310.714,793.995,311.022,795.084,311.4,795.652Z" transform="translate(-273.247 -751.55)" fill="#286d74"/>
  <path id="Контур_69" data-name="Контур 69" d="M381.762,820.932c-.022.463.838.771,1.146.286.11-.33.4-1.962.573-2.953.463.11.992.221,1.344.309-.11.748-.22,2.842-1.124,3.637a2.675,2.675,0,0,1-2.248,0,1.536,1.536,0,0,1-1.19-1.7l.661-2.777,1.367.286Zm8.221-1.9.639,3.2-1.411.287-.639-3.219-1.1.264-.22-.97,3.659-.815.265.97Z" transform="translate(-359.778 -773.811)" fill="#fff"/>
  <path id="Контур_70" data-name="Контур 70" d="M247.719,228.576c3.546,3.547,5.5,8.345,3.974,13.428,0,0-.448,1.214-.571,1.707a3.764,3.764,0,0,0-.082.872,1,1,0,0,0,1.039.341c.346-.322-.265-.74.081-1.138,1.712-.152,3.138.967,4.422,2.01-1.121,1.271-2.812,2.484-4.544,2.086-.244-.322.55-.74.021-1.062l-12.614-.019c-.367.019-1.039,1.025-1.426,1.12a3.848,3.848,0,0,1-1.712-.038c-.53-.494-.652-1.289-1-1.859-.347-.7-1.916-1.422-1.651-1.953a9.877,9.877,0,0,1,5.074.038c.733.3,1.488.93,2.262.74a.23.23,0,0,0,.143-.133c.2-2.2-1.508-4.628-4.014-5.747a3.685,3.685,0,0,0-1.977-.341,3.6,3.6,0,0,1-2.058-.227c-.428-.3-.347-1.328-.021-2.333a9.193,9.193,0,0,1,.611-1.346c1.019-2.086,4.239.133,4.666.341.55.266,1.121.834,1.284.095-.041-.474-1.039-.929-1.691-1.252-1.916-.948-3.138-.721-2.527-1.8a7.511,7.511,0,0,1,1.63-1.726,6.364,6.364,0,0,1,2.73-1.46c1.426-.133,2.955,1.745,2.955,1.745l1.814,1.878c.346.19.55-.019.591-.152.1-.285-.183-.588-.183-.588s-.835-.948-1.284-1.365c-.428-.417-1.691-1.536-1.691-1.536-.489-.8.428-1.043.937-1.119C244.56,227.628,246.373,227.211,247.719,228.576Z" transform="translate(-218.907 -213.432)" fill="#286d74"/>
  <path id="Контур_71" data-name="Контур 71" d="M244.258,120.3c1.146,0,1.691-.176,1.691-1.322s-.545-1.261-1.691-1.261-1.732.115-1.732,1.261S243.112,120.3,244.258,120.3Zm-11.88-21.886c1.058.661,2.38,1.1,3.438,1.852l-1.807.859-3.174-1.653.044-3.372,1.631-.86a17.34,17.34,0,0,1-.132,3.174Zm-1.278,4.629-3.284-4.915,1.367-.97,3.306,4.849Z" transform="translate(-215.421 -90.348)" fill="#fff"/>
</svg>
