<svg id="toyota" xmlns="http://www.w3.org/2000/svg" width="52.209" height="35.384" viewBox="0 0 52.209 35.384">
  <g id="Сгруппировать_63" data-name="Сгруппировать 63" transform="translate(0 0)">
    <g id="Сгруппировать_62" data-name="Сгруппировать 62" transform="translate(0 0)">
      <path id="Контур_72" data-name="Контур 72" d="M44.447,87.587A33.3,33.3,0,0,0,26.1,82.5a35.954,35.954,0,0,0-13.57,2.565.765.765,0,0,0,.582,1.414A34.411,34.411,0,0,1,26.1,84.03c13.551,0,24.575,7.25,24.575,16.162S39.655,116.354,26.1,116.354,1.53,109.1,1.53,100.192c0-4.729,3.157-9.213,8.662-12.3a.765.765,0,1,0-.748-1.334C3.442,89.924,0,94.894,0,100.192c0,4.785,2.756,9.262,7.762,12.605A33.305,33.305,0,0,0,26.1,117.884,33.3,33.3,0,0,0,44.447,112.8c5.005-3.344,7.762-7.82,7.762-12.605S49.453,90.93,44.447,87.587Z" transform="translate(0 -82.5)" fill="#286d74"/>
    </g>
  </g>
  <g id="Сгруппировать_65" data-name="Сгруппировать 65" transform="translate(26.92 3.468)">
    <g id="Сгруппировать_64" data-name="Сгруппировать 64" transform="translate(0 0)">
      <path id="Контур_73" data-name="Контур 73" d="M276.357,119.82c-1.926-1.425-5.974-3.043-11.557-3.309a.765.765,0,0,0-.274,1.491c2.31.757,4.3,3.421,5.328,7.128a.763.763,0,0,0,.93.536,17.222,17.222,0,0,0,5.568-2.412,2.127,2.127,0,0,0,.006-3.433Zm-.912,2.2a14.2,14.2,0,0,1-4.337,1.967,13.808,13.808,0,0,0-3.246-5.623,18.265,18.265,0,0,1,7.585,2.684.591.591,0,0,1,.248.485A.6.6,0,0,1,275.446,122.021Z" transform="translate(-263.999 -116.51)" fill="#286d74"/>
    </g>
  </g>
  <g id="Сгруппировать_67" data-name="Сгруппировать 67" transform="translate(12.061 3.468)">
    <g id="Сгруппировать_66" data-name="Сгруппировать 66" transform="translate(0 0)">
      <path id="Контур_74" data-name="Контур 74" d="M131.5,117.137a.766.766,0,0,0-.788-.626c-5.568.264-9.618,1.876-11.552,3.3a2.127,2.127,0,0,0-.006,3.434,17.11,17.11,0,0,0,5.574,2.425.764.764,0,0,0,.93-.536c1.026-3.706,3.017-6.371,5.327-7.127A.765.765,0,0,0,131.5,117.137Zm-7.1,6.851a14.1,14.1,0,0,1-4.339-1.976.6.6,0,0,1,0-.972,18.376,18.376,0,0,1,7.584-2.674A13.806,13.806,0,0,0,124.4,123.987Z" transform="translate(-118.283 -116.51)" fill="#286d74"/>
    </g>
  </g>
  <g id="Сгруппировать_69" data-name="Сгруппировать 69" transform="translate(3.754 9.129)">
    <g id="Сгруппировать_68" data-name="Сгруппировать 68" transform="translate(0 0)">
      <path id="Контур_75" data-name="Контур 75" d="M77.3,172.226a.765.765,0,0,0-1.231.311c-.488,1.362-2.094,2.705-4.522,3.782a.765.765,0,0,0,.62,1.4,10.8,10.8,0,0,0,4.84-3.653,9.408,9.408,0,0,1,2.972,6.529c0,3.325-2.149,6.521-6.05,9a26.3,26.3,0,0,1-10.67,3.687,10.741,10.741,0,0,0,2.323-2.783,19.755,19.755,0,0,0,2.5-10.014c0-.464-.013-.925-.04-1.38.366-.091.727-.188,1.078-.289a.765.765,0,1,0-.425-1.469c-.526.152-1.075.293-1.633.419a.765.765,0,0,0-.593.813c.055.619.083,1.26.083,1.906a18.215,18.215,0,0,1-2.28,9.228c-1.4,2.33-3.212,3.614-5.111,3.614-2.682,0-5.165-2.568-6.48-6.7a.765.765,0,0,0-1.458.464,13.057,13.057,0,0,0,3.849,6.2,26.3,26.3,0,0,1-10.682-3.689c-3.9-2.479-6.051-5.675-6.051-9a9.407,9.407,0,0,1,2.974-6.532c1.38,2.133,4.6,3.959,8.966,5.043-.027.454-.04.916-.04,1.379a23.188,23.188,0,0,0,.253,3.432A.765.765,0,1,0,52,183.689a21.647,21.647,0,0,1-.236-3.205c0-.645.028-1.286.083-1.906a.765.765,0,0,0-.593-.813c-4.791-1.084-8.243-3.087-9.01-5.228a.765.765,0,0,0-1.231-.311c-2.753,2.474-4.208,5.367-4.208,8.367a10.064,10.064,0,0,0,1.859,5.709,16.549,16.549,0,0,0,4.9,4.582,29.378,29.378,0,0,0,15.591,4.189,29.375,29.375,0,0,0,15.59-4.189,16.546,16.546,0,0,0,4.9-4.582,10.064,10.064,0,0,0,1.859-5.709C81.511,177.594,80.056,174.7,77.3,172.226Z" transform="translate(-36.81 -172.03)" fill="#286d74"/>
    </g>
  </g>
  <g id="Сгруппировать_71" data-name="Сгруппировать 71" transform="translate(21.633 6.943)">
    <g id="Сгруппировать_70" data-name="Сгруппировать 70" transform="translate(0 0)">
      <path id="Контур_76" data-name="Контур 76" d="M221.059,156c-.964-3.234-2.748-5.407-4.438-5.407s-3.475,2.173-4.44,5.407a.765.765,0,0,0,.644.978,33.394,33.394,0,0,0,7.591,0,.765.765,0,0,0,.644-.978Zm-4.438-.335c-.907,0-1.8-.037-2.676-.111.848-2.245,2.047-3.431,2.676-3.431s1.827,1.187,2.675,3.431C218.423,155.625,217.527,155.662,216.621,155.662Z" transform="translate(-212.149 -150.59)" fill="#286d74"/>
    </g>
  </g>
  <g id="Сгруппировать_73" data-name="Сгруппировать 73" transform="translate(20.937 15.468)">
    <g id="Сгруппировать_72" data-name="Сгруппировать 72">
      <path id="Контур_77" data-name="Контур 77" d="M215.6,234.9a.765.765,0,0,0-.849-.707,38.457,38.457,0,0,1-8.539,0,.765.765,0,0,0-.849.707c-.032.463-.049.935-.049,1.4a16.854,16.854,0,0,0,1.628,7.511c1,1.959,2.324,3.128,3.54,3.128,2.439,0,5.167-4.55,5.167-10.639C215.653,235.836,215.636,235.364,215.6,234.9Zm-2.941,8.218c-.859,1.683-1.773,2.294-2.177,2.294-1.111,0-3.638-3.441-3.638-9.109q0-.253.007-.507a40.144,40.144,0,0,0,7.262,0q.007.253.007.507A15.309,15.309,0,0,1,212.663,243.12Z" transform="translate(-205.318 -234.19)" fill="#286d74"/>
    </g>
  </g>
</svg>
